<svg width="16" height="16" viewBox="0 0 16 16" fill="none" xmlns="http://www.w3.org/2000/svg">
<path d="M6.77476 9.38288L11.5967 3.64565C11.6127 3.6262 11.6296 3.60758 11.6474 3.58986C11.7587 3.47722 11.8912 3.38765 12.0372 3.32631C12.1847 3.26434 12.3431 3.23242 12.5031 3.23242C12.6631 3.23242 12.8215 3.26434 12.969 3.32631C13.1161 3.38812 13.2494 3.47859 13.3613 3.59245C13.8211 4.05808 13.831 4.80503 13.388 5.28277L7.72688 11.9751L7.72098 11.982L7.71483 11.9888C7.60466 12.1098 7.47097 12.207 7.32195 12.2745C7.17292 12.3421 7.01168 12.3785 6.84809 12.3815C6.6845 12.3846 6.52201 12.3543 6.37055 12.2924L6.55967 11.8295L6.37055 12.2924C6.21932 12.2306 6.08227 12.1386 5.96775 12.0221C5.96757 12.022 5.9674 12.0218 5.96722 12.0216L2.51831 8.5267L2.51719 8.52556C2.29249 8.29641 2.16663 7.98827 2.16663 7.66732C2.16663 7.34643 2.29246 7.03832 2.51711 6.80918L6.77476 9.38288ZM6.77476 9.38288L4.23517 6.80918C4.23495 6.80895 4.23473 6.80873 4.23451 6.8085C4.12266 6.69455 3.98923 6.60401 3.84202 6.54217C3.69452 6.4802 3.53613 6.44828 3.37614 6.44828C3.21615 6.44828 3.05776 6.4802 2.91026 6.54217C2.76279 6.60412 2.62916 6.69486 2.51719 6.80909L6.77476 9.38288Z" fill="#9A9A9A" stroke="#9A9A9A"/>
</svg>
