<svg width="20" height="20" viewBox="0 0 20 20" fill="none" xmlns="http://www.w3.org/2000/svg">
<path opacity="0.3" d="M3.48438 0.588672C3.18062 0.588672 2.93437 0.834915 2.93437 1.13867C2.93437 1.44243 3.18062 1.68867 3.48438 1.68867V0.588672ZM14.3122 12.5164C14.3122 12.8202 14.5584 13.0665 14.8622 13.0665C15.1659 13.0665 15.4122 12.8202 15.4122 12.5164H14.3122ZM3.48438 1.68867H14.6622V0.588672H3.48438V1.68867ZM14.3122 1.33867V12.5164H15.4122V1.33867H14.3122ZM14.6622 1.68867C14.4689 1.68867 14.3122 1.53197 14.3122 1.33867H15.4122C15.4122 0.924458 15.0764 0.588672 14.6622 0.588672V1.68867Z" fill="currentColor"/>
<path opacity="0.3" d="M1.20898 2.86406C0.905228 2.86406 0.658984 3.11031 0.658984 3.41406C0.658984 3.71782 0.905228 3.96406 1.20898 3.96406V2.86406ZM12.0368 14.7918C12.0368 15.0956 12.283 15.3418 12.5868 15.3418C12.8905 15.3418 13.1368 15.0956 13.1368 14.7918H12.0368ZM1.20898 3.96406H12.3868V2.86406H1.20898V3.96406ZM12.0368 3.61406V14.7918H13.1368V3.61406H12.0368ZM12.3868 3.96406C12.1935 3.96406 12.0368 3.80736 12.0368 3.61406H13.1368C13.1368 3.19985 12.801 2.86406 12.3868 2.86406V3.96406Z" fill="currentColor"/>
<path d="M0 6.33399C0 5.7817 0.447715 5.33398 1 5.33398H9.66667C10.219 5.33398 10.6667 5.7817 10.6667 6.33398V15.0006C10.6667 15.5529 10.219 16.0007 9.66667 16.0007H1C0.447717 16.0007 0 15.5529 0 15.0007V6.33399Z" fill="currentColor"/>
</svg>
