<svg width="20" height="20" viewBox="0 0 20 20" fill="none" xmlns="http://www.w3.org/2000/svg">
<path opacity="0.3" d="M5.99992 7.33333C4.52716 7.33333 3.33325 6.13943 3.33325 4.66667C3.33325 3.19391 4.52716 2 5.99992 2C7.47268 2 8.66659 3.19391 8.66659 4.66667C8.66659 6.13943 7.47268 7.33333 5.99992 7.33333Z" fill="currentColor"/>
<rect x="12" y="7.33398" width="5.33333" height="1.33333" rx="0.666666" transform="rotate(-90 12 7.33398)" fill="currentColor"/>
<rect x="15.3333" y="5.33398" width="5.33333" height="1.33333" rx="0.666667" transform="rotate(-180 15.3333 5.33398)" fill="currentColor"/>
<path d="M0.000434456 13.4655C0.258839 10.2837 2.84127 8.66602 5.98889 8.66602C9.18081 8.66602 11.8033 10.1948 11.9986 13.466C12.0064 13.5963 11.9986 13.9993 11.4978 13.9993C9.02742 13.9993 5.35648 13.9993 0.485002 13.9993C0.317808 13.9993 -0.0136412 13.6388 0.000434456 13.4655Z" fill="currentColor"/>
</svg>
