<svg width="20" height="20" viewBox="0 0 20 20" fill="none" xmlns="http://www.w3.org/2000/svg">
<path opacity="0.3" d="M5.33332 13.7151C5.33332 13.7151 4.57141 13.7151 4.57141 12.9532C4.57141 12.1913 5.33332 9.9056 8.38093 9.9056C11.4286 9.9056 12.1905 12.1913 12.1905 12.9532C12.1905 13.7151 11.4286 13.7151 11.4286 13.7151H5.33332ZM8.38093 9.14369C8.98714 9.14369 9.56852 8.90288 9.99718 8.47422C10.4258 8.04557 10.6666 7.46419 10.6666 6.85798C10.6666 6.25177 10.4258 5.67039 9.99718 5.24174C9.56852 4.81308 8.98714 4.57227 8.38093 4.57227C7.77473 4.57227 7.19335 4.81308 6.76469 5.24174C6.33604 5.67039 6.09522 6.25177 6.09522 6.85798C6.09522 7.46419 6.33604 8.04557 6.76469 8.47422C7.19335 8.90288 7.77473 9.14369 8.38093 9.14369Z" fill="currentColor"/>
<path fill-rule="evenodd" clip-rule="evenodd" d="M3.9741 13.7141C3.86115 13.4763 3.80482 13.2155 3.80952 12.9522C3.80952 11.9199 4.32762 10.857 5.28457 10.118C4.80693 9.97078 4.30929 9.89881 3.80952 9.90462C0.761905 9.90462 0 12.1903 0 12.9522C0 13.7141 0.761905 13.7141 0.761905 13.7141H3.9741Z" fill="currentColor"/>
<path d="M3.42857 9.14351C3.93374 9.14351 4.41822 8.94283 4.77544 8.58562C5.13265 8.2284 5.33333 7.74392 5.33333 7.23875C5.33333 6.73357 5.13265 6.24909 4.77544 5.89188C4.41822 5.53466 3.93374 5.33398 3.42857 5.33398C2.92339 5.33398 2.43891 5.53466 2.0817 5.89188C1.72448 6.24909 1.5238 6.73357 1.5238 7.23875C1.5238 7.74392 1.72448 8.2284 2.0817 8.58562C2.43891 8.94283 2.92339 9.14351 3.42857 9.14351Z" fill="currentColor"/>
<path fill-rule="evenodd" clip-rule="evenodd" d="M12.9525 6.60243C12.9525 6.88296 13.1799 7.11037 13.4604 7.11037C13.7409 7.11037 13.9683 6.88296 13.9683 6.60243V5.58656H14.9841C15.2647 5.58656 15.4921 5.35915 15.4921 5.07862C15.4921 4.7981 15.2647 4.57068 14.9841 4.57068H13.9683V3.55481C13.9683 3.27429 13.7409 3.04688 13.4604 3.04688C13.1799 3.04688 12.9525 3.27429 12.9525 3.55481V4.57068H11.9365C11.656 4.57068 11.4286 4.7981 11.4286 5.07862C11.4286 5.35915 11.656 5.58656 11.9365 5.58656H12.9525V6.60243Z" fill="currentColor"/>
</svg>
