<svg width="20" height="20" viewBox="0 0 20 20" fill="none" xmlns="http://www.w3.org/2000/svg">
<path opacity="0.3" fill-rule="evenodd" clip-rule="evenodd" d="M6.58604 8.47111L5.17197 9.88532C4.91165 10.1457 4.91165 10.5678 5.17197 10.8281C5.43229 11.0885 5.85436 11.0885 6.11468 10.8281L7.52875 9.41392L8.0001 9.88532C8.52075 10.406 8.52075 11.2502 8.0001 11.7709L6.11468 13.6565C5.59404 14.1772 4.7499 14.1772 4.22926 13.6565L2.34383 11.7709C1.82319 11.2502 1.82319 10.406 2.34383 9.88532L4.22926 7.99971C4.7499 7.47901 5.59404 7.47901 6.11468 7.99971L6.58604 8.47111Z" fill="currentColor"/>
<path fill-rule="evenodd" clip-rule="evenodd" d="M9.41391 7.5289L10.828 6.11468C11.0883 5.85433 11.0883 5.43222 10.828 5.17188C10.5677 4.91153 10.1456 4.91153 9.88526 5.17188L8.4712 6.58609L7.99984 6.11468C7.4792 5.59398 7.4792 4.74977 7.99984 4.22907L9.88526 2.34345C10.4059 1.82275 11.25 1.82275 11.7707 2.34345L13.6561 4.22907C14.1768 4.74977 14.1768 5.59398 13.6561 6.11468L11.7707 8.0003C11.25 8.521 10.4059 8.521 9.88526 8.0003L9.41391 7.5289Z" fill="currentColor"/>
<path opacity="0.3" fill-rule="evenodd" clip-rule="evenodd" d="M2.8149 3.75875C2.55453 3.49835 2.55453 3.07616 2.81491 2.81576C3.07528 2.55536 3.49743 2.55536 3.7578 2.81576L4.7007 3.75875C4.96107 4.01914 4.96107 4.44133 4.7007 4.70173C4.44033 4.96213 4.01818 4.96213 3.7578 4.70173L2.8149 3.75875ZM5.56283 1.62673C5.56283 1.28607 5.86128 1.00991 6.22943 1.00991C6.59758 1.00991 6.89603 1.28607 6.89603 1.62673L6.89603 3.05973C6.89603 3.40039 6.59758 3.67655 6.22943 3.67655C5.86128 3.67655 5.56283 3.40039 5.56283 3.05973L5.56283 1.62673ZM1.12445 6.11409C1.12445 5.74589 1.44702 5.44741 1.84493 5.44741L3.07037 5.44741C3.46827 5.44741 3.79084 5.74589 3.79084 6.11409C3.79084 6.48229 3.46827 6.78077 3.07036 6.78077L1.84493 6.78077C1.44702 6.78077 1.12445 6.48229 1.12445 6.11409Z" fill="currentColor"/>
<path opacity="0.3" fill-rule="evenodd" clip-rule="evenodd" d="M12.1604 13.1024C12.4208 13.3628 12.8429 13.3628 13.1033 13.1024C13.3637 12.842 13.3637 12.4199 13.1033 12.1595L12.1604 11.2165C11.9 10.9561 11.4779 10.9561 11.2175 11.2165C10.9571 11.4769 10.9571 11.8991 11.2175 12.1595L12.1604 13.1024ZM14.1875 10.3555C14.5854 10.3555 14.908 10.057 14.908 9.68881C14.908 9.32062 14.5854 9.02215 14.1875 9.02215L12.962 9.02215C12.5641 9.02215 12.2416 9.32062 12.2416 9.68881C12.2416 10.057 12.5641 10.3555 12.962 10.3555L14.1875 10.3555ZM9.80313 14.7949C10.1713 14.7949 10.4697 14.5188 10.4697 14.1781V12.745C10.4697 12.4044 10.1713 12.1282 9.80313 12.1282C9.43498 12.1282 9.13654 12.4044 9.13654 12.745L9.13654 14.1781C9.13654 14.5188 9.43498 14.7949 9.80313 14.7949Z" fill="currentColor"/>
</svg>
