<svg width="18" height="18" viewBox="0 0 18 18" fill="none" xmlns="http://www.w3.org/2000/svg">
<g opacity="0.3">
<path d="M8.88433 5.08594C8.2938 5.08594 7.8147 5.83439 7.8147 6.7585C7.8147 9.57664 8.2938 11.8602 8.88433 11.8602C9.47485 11.8602 9.95396 9.57664 9.95396 6.7585C9.95396 5.83439 9.47485 5.08594 8.88433 5.08594Z" fill="#9A9A9A"/>
<path d="M8.88431 14.8083C9.29813 14.8083 9.63361 14.3484 9.63361 13.7811C9.63361 13.2138 9.29813 12.7539 8.88431 12.7539C8.47048 12.7539 8.13501 13.2138 8.13501 13.7811C8.13501 14.3484 8.47048 14.8083 8.88431 14.8083Z" fill="#9A9A9A"/>
</g>
<path d="M8.32975 2.10759L1.75784 15.1865C1.47335 15.7544 1.82897 16.4613 2.39796 16.4613H15.5418C16.1108 16.4613 16.4664 15.7544 16.1819 15.1865L9.60999 2.10759C9.32549 1.53966 8.61425 1.53966 8.32975 2.10759V2.10759Z" stroke="#9A9A9A" stroke-width="1.8"/>
</svg>
