<svg width="16" height="16" viewBox="0 0 16 16" fill="none" xmlns="http://www.w3.org/2000/svg">
<path opacity="0.3" fill-rule="evenodd" clip-rule="evenodd" d="M11 3.75977C10.4477 3.75977 10 4.20748 10 4.75977C10 5.31205 10.4477 5.75977 11 5.75977H13C13.5523 5.75977 14 5.31205 14 4.75977C14 4.20748 13.5523 3.75977 13 3.75977H11ZM2.66663 6.13372C2.66663 7.31193 3.62175 8.26706 4.79996 8.26706C5.97817 8.26706 6.93329 7.31193 6.93329 6.13372C6.93329 4.95552 5.97817 4.00039 4.79996 4.00039C3.62175 4.00039 2.66663 4.95552 2.66663 6.13372Z" fill="#9A9A9A"/>
<path fill-rule="evenodd" clip-rule="evenodd" d="M15 4.80078C15 6.45764 13.6569 7.80078 12 7.80078C10.3431 7.80078 9 6.45764 9 4.80078C9 3.14393 10.3431 1.80078 12 1.80078C13.6569 1.80078 15 3.14393 15 4.80078ZM16 4.80078C16 7.00992 14.2091 8.80078 12 8.80078C9.79086 8.80078 8 7.00992 8 4.80078C8 2.59164 9.79086 0.800781 12 0.800781C14.2091 0.800781 16 2.59164 16 4.80078ZM4.79112 9.33359C2.27302 9.33359 0.207071 10.6277 0.000347565 13.1732C-0.0109129 13.3118 0.254247 13.6003 0.388001 13.6003H9.19824C9.59889 13.6003 9.60511 13.2778 9.59889 13.1736C9.44261 10.5566 7.34465 9.33359 4.79112 9.33359Z" fill="#9A9A9A"/>
</svg>
