<svg width="20" height="20" viewBox="0 0 20 20" fill="none" xmlns="http://www.w3.org/2000/svg">
<path opacity="0.3" d="M15 2.59961C14.4477 2.59961 14 3.04732 14 3.59961V3.79961C14 4.46235 13.4627 4.99961 12.8 4.99961H3.2C2.53726 4.99961 2 4.46235 2 3.79961V3.59961C2 3.04732 1.55228 2.59961 1 2.59961C0.447715 2.59961 0 3.04732 0 3.59961V13.7996C0 14.9042 0.895431 15.7996 2 15.7996H14C15.1046 15.7996 16 14.9042 16 13.7996V3.59961C16 3.04732 15.5523 2.59961 15 2.59961ZM5.6 12.1996C5.6 12.8624 5.06274 13.3996 4.4 13.3996C3.73726 13.3996 3.2 12.8624 3.2 12.1996C3.2 11.5369 3.73726 10.9996 4.4 10.9996C5.06274 10.9996 5.6 11.5369 5.6 12.1996ZM5.6 8.59961C5.6 9.26235 5.06274 9.79961 4.4 9.79961C3.73726 9.79961 3.2 9.26235 3.2 8.59961C3.2 7.93687 3.73726 7.39961 4.4 7.39961C5.06274 7.39961 5.6 7.93687 5.6 8.59961ZM9.2 12.1996C9.2 12.8624 8.66274 13.3996 8 13.3996C7.33726 13.3996 6.8 12.8624 6.8 12.1996C6.8 11.5369 7.33726 10.9996 8 10.9996C8.66274 10.9996 9.2 11.5369 9.2 12.1996ZM9.2 8.59961C9.2 9.26235 8.66274 9.79961 8 9.79961C7.33726 9.79961 6.8 9.26235 6.8 8.59961C6.8 7.93687 7.33726 7.39961 8 7.39961C8.66274 7.39961 9.2 7.93687 9.2 8.59961ZM12.8 12.1996C12.8 12.8624 12.2627 13.3996 11.6 13.3996C10.9373 13.3996 10.4 12.8624 10.4 12.1996C10.4 11.5369 10.9373 10.9996 11.6 10.9996C12.2627 10.9996 12.8 11.5369 12.8 12.1996ZM12.8 8.59961C12.8 9.26235 12.2627 9.79961 11.6 9.79961C10.9373 9.79961 10.4 9.26235 10.4 8.59961C10.4 7.93687 10.9373 7.39961 11.6 7.39961C12.2627 7.39961 12.8 7.93687 12.8 8.59961Z" fill="currentColor"/>
<path d="M9.46647 3.13255V1.53255C9.46647 0.796172 8.86952 0.199219 8.13314 0.199219C7.39676 0.199219 6.7998 0.796173 6.7998 1.53255V3.13255C6.7998 3.86893 7.39676 4.46588 8.13314 4.46588C8.86952 4.46588 9.46647 3.86893 9.46647 3.13255Z" fill="currentColor"/>
<path d="M5.86686 3.13255V1.53255C5.86686 0.796172 5.26991 0.199219 4.53353 0.199219C3.79715 0.199219 3.2002 0.796173 3.2002 1.53255V3.13255C3.2002 3.86893 3.79715 4.46588 4.53353 4.46588C5.26991 4.46588 5.86686 3.86893 5.86686 3.13255Z" fill="currentColor"/>
<path opacity="0.3" d="M13.0666 3.13255V1.53255C13.0666 0.796172 12.4696 0.199219 11.7332 0.199219C10.9969 0.199219 10.3999 0.796173 10.3999 1.53255V3.13255C10.3999 3.86893 10.9969 4.46588 11.7332 4.46588C12.4696 4.46588 13.0666 3.86893 13.0666 3.13255Z" fill="currentColor"/>
<path d="M11.6445 2.44055L5.38325 8.70107C5.0182 9.06611 4.75922 9.52345 4.63401 10.0242L4.14852 11.966C3.93738 12.8104 4.70236 13.5752 5.54693 13.3642L7.4889 12.8787C7.98973 12.7535 8.44712 12.4946 8.81221 12.1296L15.0734 5.86912C16.0202 4.92228 16.0202 3.3873 15.0734 2.44055C14.1266 1.49378 12.5913 1.49378 11.6445 2.44055Z" fill="currentColor"/>
</svg>
