<svg width="20" height="20" viewBox="0 0 20 20" fill="none" xmlns="http://www.w3.org/2000/svg">
<path d="M4.76341 0.823649C5.01721 0.318694 5.53411 0 6.09931 0H9.85122C10.4177 0 10.9354 0.31998 11.1885 0.826509L11.7716 1.99267H13.456C14.8322 1.99267 15.9479 3.1082 15.9479 4.48426V6.67214C15.6488 6.41418 15.309 6.22831 14.9512 6.11452V4.48426C14.9512 3.65862 14.2817 2.98931 13.456 2.98931H11.4636C11.2748 2.98931 11.1022 2.88265 11.0178 2.7138L10.2971 1.27213C10.2126 1.10329 10.04 0.996635 9.85122 0.996635H6.09931C5.91092 0.996635 5.73862 1.10287 5.65402 1.27119L4.92844 2.71475C4.84385 2.88308 4.67155 2.98931 4.48315 2.98931H2.49186C1.66613 2.98931 0.996745 3.65862 0.996745 4.48426V12.4579C0.996745 13.2836 1.66613 13.9529 2.49186 13.9529H6.19632L6.03355 14.604C6.00444 14.7204 5.98669 14.8358 5.97942 14.9495H2.49186C1.11564 14.9495 0 13.834 0 12.4579V4.48426C0 3.10819 1.11565 1.99267 2.49186 1.99267H4.17584L4.76341 0.823649Z" fill="currentColor"/>
<path opacity="0.3" d="M11.9049 7.01794C11.4818 5.27049 9.90736 3.97266 8.0297 3.97266C5.82776 3.97266 4.04272 5.75749 4.04272 7.95917C4.04272 9.84241 5.34861 11.4206 7.10432 11.8378C7.1677 11.7612 7.23479 11.6876 7.30544 11.6169L7.97382 10.9486C6.34815 10.9188 5.03947 9.59185 5.03947 7.95917C5.03947 6.30792 6.37824 4.96929 8.0297 4.96929C9.66246 4.96929 10.9896 6.27782 11.0194 7.90333L11.9049 7.01794Z" fill="currentColor"/>
<path opacity="0.3" d="M12.813 7.54592L7.99926 12.3591C7.71861 12.6398 7.5195 12.9914 7.42323 13.3764L7.04998 14.8692C6.88765 15.5184 7.47578 16.1065 8.1251 15.9442L9.61813 15.571C10.0032 15.4747 10.3548 15.2757 10.6355 14.995L15.4492 10.1819C16.1771 9.45392 16.1771 8.2738 15.4492 7.54592C14.7213 6.81803 13.5409 6.81803 12.813 7.54592Z" fill="currentColor"/>
</svg>
