<svg width="18" height="16" viewBox="0 0 18 16" fill="none" xmlns="http://www.w3.org/2000/svg">
<path d="M16.2243 7.15222C15.9761 6.82269 15.0538 6.59577 14.6637 6.00274C14.2735 5.40971 13.9541 4.12544 12.9611 3.63198C11.9681 3.13852 10.0702 3 8.98638 3C7.9026 3 6.00599 3.13547 5.01163 3.63096C4.01726 4.12645 3.69924 5.40971 3.30908 6.00172C2.91892 6.59374 1.99669 6.82269 1.74844 7.15222C1.50019 7.48176 1.32543 9.56498 1.43178 10.5864C1.53812 11.6079 1.73659 12.2121 1.73659 12.2121H4.64924C5.1261 12.2121 5.28121 12.0329 6.25661 11.9412C7.32684 11.8396 8.37675 11.8057 8.98638 11.8057C9.596 11.8057 10.6798 11.8396 11.7493 11.9412C12.7247 12.0336 12.8849 12.2121 13.3567 12.2121H16.2355C16.2355 12.2121 16.434 11.6079 16.5403 10.5864C16.6466 9.56498 16.4712 7.48176 16.2243 7.15222Z" stroke="#9A9A9A" stroke-width="1.3" stroke-linecap="round" stroke-linejoin="round"/>
<path d="M13.8634 12.2129H15.76V12.7548H13.8634V12.2129Z" stroke="#9A9A9A" stroke-width="1.3" stroke-linecap="round" stroke-linejoin="round"/>
<path d="M2.21277 12.2129H4.10938V12.7548H2.21277V12.2129Z" stroke="#9A9A9A" stroke-width="1.3" stroke-linecap="round" stroke-linejoin="round"/>
<path opacity="0.5" d="M12.66 9.67759C12.4598 9.44627 11.8075 9.25322 10.9439 9.12384C10.0803 8.99447 9.76528 8.96094 8.99309 8.96094C8.2209 8.96094 7.86969 9.01648 7.04195 9.12384C6.21422 9.2312 5.59274 9.42222 5.3262 9.67759C4.92622 10.065 5.51213 10.4999 5.97206 10.5527C6.41776 10.6035 7.30883 10.5849 8.99681 10.5849C10.6848 10.5849 11.5759 10.6035 12.0216 10.5527C12.4808 10.4969 13.0247 10.0921 12.66 9.67759Z" fill="#9A9A9A"/>
<path opacity="0.5" d="M14.9325 7.43867C14.9306 7.41177 14.9189 7.38652 14.8995 7.36777C14.8801 7.34902 14.8545 7.33808 14.8275 7.33706C14.4276 7.32284 14.0215 7.35129 13.3011 7.56364C12.9336 7.67094 12.5885 7.84373 12.2824 8.07369C12.2051 8.13398 12.2326 8.29689 12.3294 8.31416C12.9232 8.3838 13.5205 8.41886 14.1183 8.41915C14.477 8.41915 14.8472 8.31754 14.9159 7.99783C14.951 7.81349 14.9566 7.62476 14.9325 7.43867Z" fill="#9A9A9A"/>
<path opacity="0.5" d="M3.04016 7.43867C3.04206 7.41177 3.05383 7.38652 3.07321 7.36777C3.09259 7.34902 3.11821 7.33808 3.14515 7.33706C3.54513 7.32284 3.95121 7.35129 4.67159 7.56364C5.03911 7.67094 5.38423 7.84373 5.69034 8.07369C5.76755 8.13398 5.74012 8.29689 5.64326 8.31416C5.0495 8.3838 4.45218 8.41886 3.85435 8.41915C3.49569 8.41915 3.12551 8.31754 3.05676 7.99783C3.02171 7.81349 3.0161 7.62476 3.04016 7.43867Z" fill="#9A9A9A"/>
<path d="M14.9471 5.70898H15.489" stroke="#9A9A9A" stroke-width="1.3" stroke-linecap="round" stroke-linejoin="round"/>
<path d="M2.48376 5.70898H3.02565" stroke="#9A9A9A" stroke-width="1.3" stroke-linecap="round" stroke-linejoin="round"/>
<path d="M2.95789 6.35368C2.95789 6.35368 4.52767 5.94727 8.98639 5.94727C13.4451 5.94727 15.0149 6.35368 15.0149 6.35368" stroke="#9A9A9A" stroke-width="1.3" stroke-linecap="round" stroke-linejoin="round"/>
</svg>
