<svg width="16" height="16" viewBox="0 0 16 16" fill="none" xmlns="http://www.w3.org/2000/svg">
<path d="M8.92497 7.99916L13.6125 2.41166C13.691 2.31881 13.625 2.17773 13.5035 2.17773H12.0785C11.9946 2.17773 11.9143 2.21523 11.8589 2.27952L7.99283 6.88845L4.12675 2.27952C4.07318 2.21523 3.99283 2.17773 3.90711 2.17773H2.48211C2.36068 2.17773 2.29461 2.31881 2.37318 2.41166L7.06068 7.99916L2.37318 13.5867C2.35558 13.6074 2.34429 13.6327 2.34065 13.6596C2.33701 13.6865 2.34117 13.7139 2.35264 13.7386C2.3641 13.7632 2.3824 13.784 2.40535 13.7985C2.4283 13.8131 2.45494 13.8207 2.48211 13.8206H3.90711C3.99104 13.8206 4.0714 13.7831 4.12675 13.7188L7.99283 9.10988L11.8589 13.7188C11.9125 13.7831 11.9928 13.8206 12.0785 13.8206H13.5035C13.625 13.8206 13.691 13.6795 13.6125 13.5867L8.92497 7.99916Z" fill="#9A9A9A"/>
</svg>
