<svg width="16" height="16" viewBox="0 0 16 16" fill="none" xmlns="http://www.w3.org/2000/svg">
<path d="M7.08518 11.6013C7.6245 12.0159 8.37531 12.0157 8.91436 11.6007L14.5422 7.26848C15.2777 6.7053 15.2789 5.59773 14.5446 5.03301L8.91442 0.70322C8.3753 0.288619 7.6247 0.288619 7.08558 0.70322L1.44983 5.03731C0.717451 5.60053 0.716983 6.70463 1.44889 7.26848L7.08518 11.6013Z" fill="currentColor"/>
<path opacity="0.3" fill-rule="evenodd" clip-rule="evenodd" d="M8.90517 13.8379C8.36609 14.2525 7.61549 14.2526 7.07633 13.838L2.05275 9.97548C1.71224 9.71367 1.22484 9.77247 0.956366 10.1078C0.676708 10.457 0.743274 10.9687 1.10298 11.2348L7.1064 15.6756C7.63639 16.0677 8.36022 16.0677 8.89027 15.6758L14.8906 11.2389C15.2534 10.9707 15.3203 10.4546 15.038 10.1027C14.7674 9.76526 14.2765 9.70631 13.9337 9.97004L8.90517 13.8379Z" fill="currentColor"/>
</svg>
