<svg width="20" height="20" viewBox="0 0 20 20" fill="none" xmlns="http://www.w3.org/2000/svg">
<path opacity="0.3" d="M5.64701 7.84383C4.26088 7.84383 3.13721 6.72015 3.13721 5.33402C3.13721 3.9479 4.26088 2.82422 5.64701 2.82422C7.03314 2.82422 8.15682 3.9479 8.15682 5.33402C8.15682 6.72015 7.03314 7.84383 5.64701 7.84383Z" fill="currentColor"/>
<path fill-rule="evenodd" clip-rule="evenodd" d="M11.8235 4.77539C11.2712 4.77539 10.8235 5.22311 10.8235 5.77539C10.8235 6.32768 11.2712 6.77539 11.8235 6.77539H14.5294C15.0817 6.77539 15.5294 6.32768 15.5294 5.77539C15.5294 5.22311 15.0817 4.77539 14.5294 4.77539H11.8235ZM5.63661 9.09708C2.67414 9.09708 0.243613 10.6196 0.0004089 13.6142C-0.0128387 13.7774 0.299114 14.1167 0.456472 14.1167H10.8215C11.2928 14.1167 11.3001 13.7374 11.2928 13.6147C11.1089 10.5359 8.64076 9.09708 5.63661 9.09708Z" fill="currentColor"/>
</svg>
