<svg width="16" height="16" viewBox="0 0 16 16" fill="none" xmlns="http://www.w3.org/2000/svg">
<path d="M9.90475 2.00001C9.90475 3.10501 9.05237 4.00001 7.99998 4.00001C6.9476 4.00001 6.09521 3.10501 6.09521 2.00001C6.09521 0.895003 6.9476 0 7.99998 0C9.05237 0 9.90475 0.895003 9.90475 2.00001Z" fill="#9A9A9A"/>
<path opacity="0.3" d="M9.90475 8.00001C9.90475 9.10501 9.05237 10 7.99998 10C6.9476 10 6.09521 9.10501 6.09521 8.00001C6.09521 6.895 6.9476 6 7.99998 6C9.05237 6 9.90475 6.895 9.90475 8.00001Z" fill="#9A9A9A"/>
<path d="M9.90475 14C9.90475 15.105 9.05237 16 7.99998 16C6.9476 16 6.09521 15.105 6.09521 14C6.09521 12.895 6.9476 12 7.99998 12C9.05237 12 9.90475 12.895 9.90475 14Z" fill="#9A9A9A"/>
</svg>
