<svg width="16" height="16" viewBox="0 0 16 16" fill="none" xmlns="http://www.w3.org/2000/svg">
<path d="M2.00001 6.09476C3.10501 6.09476 4.00001 6.94714 4.00001 7.99953C4.00001 9.05191 3.10501 9.9043 2.00001 9.9043C0.895003 9.9043 0 9.05191 0 7.99953C0 6.94714 0.895003 6.09476 2.00001 6.09476Z" fill="#9A9A9A"/>
<path opacity="0.3" d="M8.00001 6.09476C9.10501 6.09476 10 6.94714 10 7.99953C10 9.05191 9.10501 9.9043 8.00001 9.9043C6.895 9.9043 6 9.05191 6 7.99953C6 6.94714 6.895 6.09476 8.00001 6.09476Z" fill="#9A9A9A"/>
<path d="M14 6.09476C15.105 6.09476 16 6.94714 16 7.99953C16 9.05191 15.105 9.9043 14 9.9043C12.895 9.9043 12 9.05191 12 7.99953C12 6.94714 12.895 6.09476 14 6.09476Z" fill="#9A9A9A"/>
</svg>
