<svg width="16" height="16" viewBox="0 0 16 16" fill="none" xmlns="http://www.w3.org/2000/svg">
<g clip-path="url(#clip0_598_1192)">
<path d="M8 15C6.14348 15 4.36301 14.2625 3.05025 12.9497C1.7375 11.637 1 9.85652 1 8C1 6.14348 1.7375 4.36301 3.05025 3.05025C4.36301 1.7375 6.14348 1 8 1C9.85652 1 11.637 1.7375 12.9497 3.05025C14.2625 4.36301 15 6.14348 15 8C15 9.85652 14.2625 11.637 12.9497 12.9497C11.637 14.2625 9.85652 15 8 15ZM8 16C10.1217 16 12.1566 15.1571 13.6569 13.6569C15.1571 12.1566 16 10.1217 16 8C16 5.87827 15.1571 3.84344 13.6569 2.34315C12.1566 0.842855 10.1217 0 8 0C5.87827 0 3.84344 0.842855 2.34315 2.34315C0.842855 3.84344 0 5.87827 0 8C0 10.1217 0.842855 12.1566 2.34315 13.6569C3.84344 15.1571 5.87827 16 8 16Z" fill="#9A9A9A"/>
<path opacity="0.3" d="M4.2849 9.567C4.39974 9.5007 4.53621 9.48273 4.6643 9.51705C4.79238 9.55137 4.90159 9.63516 4.9679 9.75C5.27501 10.2823 5.71695 10.7244 6.24923 11.0316C6.7815 11.3388 7.38532 11.5004 7.9999 11.5C8.61447 11.5004 9.21829 11.3388 9.75057 11.0316C10.2828 10.7244 10.7248 10.2823 11.0319 9.75C11.0645 9.69268 11.1081 9.64237 11.1602 9.60197C11.2123 9.56156 11.2719 9.53187 11.3356 9.5146C11.3992 9.49732 11.4656 9.4928 11.531 9.5013C11.5964 9.5098 11.6595 9.53115 11.7166 9.56412C11.7737 9.59709 11.8237 9.64103 11.8637 9.69341C11.9038 9.74579 11.9331 9.80558 11.9499 9.86933C11.9668 9.93308 11.9709 9.99953 11.9619 10.0649C11.953 10.1302 11.9312 10.1931 11.8979 10.25C11.503 10.9344 10.9348 11.5026 10.2506 11.8976C9.56627 12.2926 8.79 12.5004 7.9999 12.5C7.20979 12.5004 6.43353 12.2926 5.74924 11.8976C5.06495 11.5026 4.49678 10.9344 4.1019 10.25C4.0356 10.1352 4.01763 9.99869 4.05195 9.8706C4.08627 9.74251 4.17006 9.63331 4.2849 9.567ZM6.9999 6.5C6.9999 7.328 6.5519 8 5.9999 8C5.4479 8 4.9999 7.328 4.9999 6.5C4.9999 5.672 5.4479 5 5.9999 5C6.5519 5 6.9999 5.672 6.9999 6.5ZM10.9999 6.5C10.9999 7.328 10.5519 8 9.9999 8C9.4479 8 8.9999 7.328 8.9999 6.5C8.9999 5.672 9.4479 5 9.9999 5C10.5519 5 10.9999 5.672 10.9999 6.5Z" fill="#9A9A9A"/>
</g>
<defs>
<clipPath id="clip0_598_1192">
<rect width="16" height="16" fill="white"/>
</clipPath>
</defs>
</svg>
