<svg width="16" height="17" viewBox="0 0 16 17" fill="none" xmlns="http://www.w3.org/2000/svg">
<g clip-path="url(#clip0_1480_3667)">
<path d="M8 15.5C6.14348 15.5 4.36301 14.7625 3.05025 13.4497C1.7375 12.137 1 10.3565 1 8.5C1 6.64348 1.7375 4.86301 3.05025 3.55025C4.36301 2.2375 6.14348 1.5 8 1.5C9.85652 1.5 11.637 2.2375 12.9497 3.55025C14.2625 4.86301 15 6.64348 15 8.5C15 10.3565 14.2625 12.137 12.9497 13.4497C11.637 14.7625 9.85652 15.5 8 15.5ZM8 16.5C10.1217 16.5 12.1566 15.6571 13.6569 14.1569C15.1571 12.6566 16 10.6217 16 8.5C16 6.37827 15.1571 4.34344 13.6569 2.84315C12.1566 1.34285 10.1217 0.5 8 0.5C5.87827 0.5 3.84344 1.34285 2.34315 2.84315C0.842855 4.34344 0 6.37827 0 8.5C0 10.6217 0.842855 12.6566 2.34315 14.1569C3.84344 15.6571 5.87827 16.5 8 16.5Z" fill="#9A9A9A"/>
<path opacity="0.3" d="M4.28502 10.067C4.39986 10.0007 4.53633 9.98273 4.66442 10.0171C4.79251 10.0514 4.90171 10.1352 4.96802 10.25C5.27513 10.7823 5.71707 11.2244 6.24935 11.5316C6.78163 11.8388 7.38545 12.0004 8.00002 12C8.61459 12.0004 9.21842 11.8388 9.75069 11.5316C10.283 11.2244 10.7249 10.7823 11.032 10.25C11.0646 10.1927 11.1082 10.1424 11.1603 10.102C11.2124 10.0616 11.272 10.0319 11.3357 10.0146C11.3993 9.99732 11.4657 9.9928 11.5311 10.0013C11.5965 10.0098 11.6596 10.0311 11.7167 10.0641C11.7738 10.0971 11.8238 10.141 11.8639 10.1934C11.9039 10.2458 11.9332 10.3056 11.9501 10.3693C11.9669 10.4331 11.971 10.4995 11.9621 10.5649C11.9531 10.6302 11.9314 10.6931 11.898 10.75C11.5031 11.4344 10.935 12.0026 10.2507 12.3976C9.56639 12.7926 8.79013 13.0004 8.00002 13C7.20991 13.0004 6.43365 12.7926 5.74936 12.3976C5.06507 12.0026 4.4969 11.4344 4.10202 10.75C4.03572 10.6352 4.01775 10.4987 4.05207 10.3706C4.08639 10.2425 4.17018 10.1333 4.28502 10.067ZM7.00002 7C7.00002 7.828 6.55202 8.5 6.00002 8.5C5.44802 8.5 5.00002 7.828 5.00002 7C5.00002 6.172 5.44802 5.5 6.00002 5.5C6.55202 5.5 7.00002 6.172 7.00002 7ZM11 7C11 7.828 10.552 8.5 10 8.5C9.44802 8.5 9.00002 7.828 9.00002 7C9.00002 6.172 9.44802 5.5 10 5.5C10.552 5.5 11 6.172 11 7Z" fill="#9A9A9A"/>
</g>
<defs>
<clipPath id="clip0_1480_3667">
<rect width="16" height="16" fill="white" transform="translate(0 0.5)"/>
</clipPath>
</defs>
</svg>
