<svg width="20" height="20" viewBox="0 0 20 20" fill="none" xmlns="http://www.w3.org/2000/svg">
<path d="M10.79 12.912L9.176 11.297C8.55184 11.5202 7.87715 11.5615 7.23042 11.4162C6.58369 11.2709 5.99153 10.9449 5.52282 10.4762C5.05411 10.0075 4.72814 9.41531 4.58283 8.76858C4.43752 8.12185 4.47885 7.44716 4.702 6.823L2.642 4.763C0.938 6.278 0 8 0 8C0 8 3 13.5 8 13.5C8.9604 13.4967 9.90994 13.2965 10.79 12.912ZM5.21 3.088C6.09005 2.70342 7.03959 2.50331 8 2.5C13 2.5 16 8 16 8C16 8 15.061 9.721 13.359 11.238L11.297 9.176C11.5202 8.55184 11.5615 7.87715 11.4162 7.23042C11.2709 6.58369 10.9449 5.99153 10.4762 5.52282C10.0075 5.05411 9.41531 4.72814 8.76858 4.58283C8.12185 4.43752 7.44716 4.47885 6.823 4.702L5.21 3.089V3.088Z" fill="currentColor"/>
<path d="M5.525 7.64648C5.46999 8.03079 5.50524 8.42263 5.62796 8.79096C5.75068 9.15928 5.95749 9.49396 6.23201 9.76847C6.50653 10.043 6.8412 10.2498 7.20953 10.3725C7.57785 10.4952 7.96969 10.5305 8.354 10.4755L5.524 7.64648H5.525ZM10.475 8.35448L7.646 5.52448C8.03031 5.46948 8.42215 5.50473 8.79047 5.62745C9.15879 5.75017 9.49347 5.95698 9.76799 6.2315C10.0425 6.50601 10.2493 6.84069 10.372 7.20901C10.4948 7.57733 10.53 7.96917 10.475 8.35348V8.35448ZM13.646 14.3545L1.646 2.35448L2.354 1.64648L14.354 13.6465L13.646 14.3545Z" fill="currentColor"/>
</svg>
