<svg width="16" height="16" viewBox="0 0 16 16" fill="none" xmlns="http://www.w3.org/2000/svg">
<g clip-path="url(#clip0_393_810)">
<path d="M16 8.04805C16 3.60205 12.418 -0.00195312 8.00005 -0.00195312C3.58005 -0.000953125 -0.00195312 3.60205 -0.00195312 8.04905C-0.00195312 12.066 2.92405 15.396 6.74805 16V10.375H4.71805V8.04905H6.75005V6.27405C6.75005 4.25705 7.94505 3.14305 9.77205 3.14305C10.648 3.14305 11.563 3.30005 11.563 3.30005V5.28005H10.554C9.56105 5.28005 9.25105 5.90105 9.25105 6.53805V8.04805H11.469L11.115 10.374H9.25005V15.999C13.074 15.395 16 12.065 16 8.04805Z" fill="currentColor"/>
</g>
<defs>
<clipPath id="clip0_393_810">
<rect width="16" height="16" fill="white"/>
</clipPath>
</defs>
</svg>
