  <svg
    width="30"
    height="30"
    viewBox="0 0 60 60"
    fill="none"
    xmlns="http://www.w3.org/2000/svg"
  >
    <path
      d="M18 28C23.8031 28 28.5 23.3031 28.5 17.5C28.5 11.6969 23.8031 7 18 7C12.1969 7 7.5 11.6969 7.5 17.5C7.5 23.3031 12.1969 28 18 28ZM25.2 31H24.4219C22.4719 31.9375 20.3062 32.5 18 32.5C15.6938 32.5 13.5375 31.9375 11.5781 31H10.8C4.8375 31 0 35.8375 0 41.8V44.5C0 46.9844 2.01562 49 4.5 49H31.5C33.9844 49 36 46.9844 36 44.5V41.8C36 35.8375 31.1625 31 25.2 31ZM45 28C49.9688 28 54 23.9688 54 19C54 14.0312 49.9688 10 45 10C40.0312 10 36 14.0312 36 19C36 23.9688 40.0312 28 45 28ZM49.5 31H49.1438C47.8406 31.45 46.4625 31.75 45 31.75C43.5375 31.75 42.1594 31.45 40.8562 31H40.5C38.5875 31 36.825 31.5531 35.2781 32.4437C37.5656 34.9094 39 38.1813 39 41.8V45.4C39 45.6063 38.9531 45.8031 38.9437 46H55.5C57.9844 46 60 43.9844 60 41.5C60 35.6969 55.3031 31 49.5 31Z"
      fill="currentColor"
    />
  </svg>
