<svg width="16" height="16" viewBox="0 0 16 16" fill="none" xmlns="http://www.w3.org/2000/svg">
<rect x="2.66675" y="2.66602" width="4.66667" height="4.66667" rx="1.5" fill="#9A9A9A"/>
<path opacity="0.3" fill-rule="evenodd" clip-rule="evenodd" d="M8.66675 4.16602C8.66675 3.33759 9.33832 2.66602 10.1667 2.66602H11.8334C12.6618 2.66602 13.3334 3.33759 13.3334 4.16602V5.83268C13.3334 6.66111 12.6618 7.33268 11.8334 7.33268H10.1667C9.33832 7.33268 8.66675 6.66111 8.66675 5.83268V4.16602ZM2.66675 10.166C2.66675 9.33759 3.33832 8.66602 4.16675 8.66602H5.83342C6.66184 8.66602 7.33342 9.33759 7.33342 10.166V11.8327C7.33342 12.6611 6.66184 13.3327 5.83342 13.3327H4.16675C3.33832 13.3327 2.66675 12.6611 2.66675 11.8327V10.166ZM10.1667 8.66602C9.33832 8.66602 8.66675 9.33759 8.66675 10.166V11.8327C8.66675 12.6611 9.33832 13.3327 10.1667 13.3327H11.8334C12.6618 13.3327 13.3334 12.6611 13.3334 11.8327V10.166C13.3334 9.33759 12.6618 8.66602 11.8334 8.66602H10.1667Z" fill="#9A9A9A"/>
</svg>
