<svg width="16" height="16" viewBox="0 0 16 16" fill="none" xmlns="http://www.w3.org/2000/svg">
<g clip-path="url(#clip0_347_256)">
<path d="M15.545 6.55658C15.6383 7.09354 15.6848 7.63758 15.684 8.18259C15.684 10.6166 14.814 12.6746 13.3 14.0676H13.302C11.978 15.2906 10.158 15.9986 8.00001 15.9986C5.87827 15.9986 3.84344 15.1557 2.34315 13.6554C0.842855 12.1552 0 10.1203 0 7.99859C0 5.87685 0.842855 3.84202 2.34315 2.34172C3.84344 0.841431 5.87827 -0.00142524 8.00001 -0.00142524C9.98595 -0.0246836 11.9039 0.721408 13.352 2.08058L11.068 4.36458C10.2424 3.57755 9.1405 3.14657 8.00001 3.16458C5.913 3.16458 4.14 4.57258 3.508 6.46858C3.17291 7.46209 3.17291 8.53808 3.508 9.53159H3.511C4.146 11.4246 5.916 12.8326 8.00301 12.8326C9.08101 12.8326 10.007 12.5566 10.725 12.0686H10.722C11.1389 11.7924 11.4955 11.4346 11.7704 11.0168C12.0452 10.599 12.2325 10.1298 12.321 9.63759H8.00001V6.55758H15.545V6.55658Z" fill="currentColor"/>
</g>
<defs>
<clipPath id="clip0_347_256">
<rect width="16" height="16" fill="white"/>
</clipPath>
</defs>
</svg>
