<svg width="20" height="20" viewBox="0 0 20 20" fill="none" xmlns="http://www.w3.org/2000/svg">
<path d="M3.73041 8.00056L8.4697 1.9452C8.54291 1.85234 8.47684 1.71484 8.3572 1.71484H6.97684C6.88934 1.71484 6.80541 1.75592 6.75184 1.82377L2.19291 7.64877C2.11396 7.74938 2.07104 7.87356 2.07104 8.00145C2.07104 8.12934 2.11396 8.25353 2.19291 8.35413L6.75184 14.1773C6.80541 14.247 6.88934 14.2863 6.97684 14.2863H8.3572C8.47684 14.2863 8.54291 14.1488 8.4697 14.0559L3.73041 8.00056ZM9.15899 8.00056L13.8983 1.9452C13.9715 1.85234 13.9054 1.71484 13.7858 1.71484H12.4054C12.3179 1.71484 12.234 1.75592 12.1804 1.82377L7.62148 7.64877C7.54253 7.74938 7.49962 7.87356 7.49962 8.00145C7.49962 8.12934 7.54253 8.25353 7.62148 8.35413L12.1804 14.1773C12.234 14.247 12.3179 14.2863 12.4054 14.2863H13.7858C13.9054 14.2863 13.9715 14.1488 13.8983 14.0559L9.15899 8.00056Z" fill="currentColor"/>
</svg>
