  <svg
    width="30"
    height="30"
    viewBox="0 0 60 60"
    fill="none"
    xmlns="http://www.w3.org/2000/svg"
  >
<path d="M50.9984 15.1722L32.2466 7.35893C31.6754 7.12197 31.0631 7 30.4447 7C29.8263 7 29.2139 7.12197 28.6427 7.35893L9.89091 15.1722C8.14269 15.8949 7 17.6041 7 19.4988C7 38.8854 18.1827 52.2852 28.633 56.6411C29.7854 57.1196 31.0844 57.1196 32.2368 56.6411C40.6068 53.1544 53.8796 41.1122 53.8796 19.4988C53.8796 17.6041 52.7369 15.8949 50.9984 15.1722ZM30.4496 50.5858L30.4398 13.3751L47.6192 20.534C47.2969 35.3206 39.6008 46.0346 30.4496 50.5858V50.5858Z"  fill="currentColor"/>
</svg>
