<svg width="16" height="16" viewBox="0 0 16 16" fill="none" xmlns="http://www.w3.org/2000/svg">
<path fill-rule="evenodd" clip-rule="evenodd" d="M11.8218 3.75798C11.8218 1.71354 10.1799 0 8.02834 0C5.87676 0 4.22876 1.7147 4.22876 3.75972C4.22876 4.43432 4.32717 4.94318 4.66096 5.52473H4.65458L7.9029 11.5208C8.025 11.681 8.15317 11.5115 8.15317 11.5115C8.04352 11.6688 11.4015 5.52473 11.4015 5.52473H11.3988C11.7292 4.94318 11.8218 4.43316 11.8218 3.75798ZM6.2792 3.64283C6.2792 2.67833 7.0625 1.89702 8.02834 1.89702C8.99388 1.89702 9.77779 2.67833 9.77779 3.64283C9.77779 4.60733 8.99388 5.38894 8.02834 5.38894C7.0625 5.38894 6.2792 4.60762 6.2792 3.64283Z" fill="currentColor"/>
<path opacity="0.3" d="M2.53275 11.1885L2.03863 13.5509L1.9134 14.1497L2.52512 14.1533L13.5574 14.2178L14.1787 14.2214L14.0494 13.6137L13.5327 11.1855H13.6884L14.6291 14.0534L14.6294 14.0548C14.6315 14.0631 14.6345 14.0758 14.6375 14.091C14.6443 14.1259 14.6474 14.1546 14.6474 14.1694C14.6474 14.2274 14.634 14.3127 14.604 14.4128C14.5957 14.4405 14.5925 14.445 14.5343 14.5262C14.5301 14.5322 14.5255 14.5386 14.5206 14.5454C14.5205 14.5455 14.5203 14.5457 14.5201 14.5458C14.5087 14.5558 14.4919 14.5688 14.4713 14.5835C14.4515 14.5977 14.4324 14.6103 14.4182 14.6194L14.4025 14.6293L14.3999 14.631L14.3998 14.631L14.3997 14.6311L14.3996 14.6312L14.3993 14.6313L14.3993 14.6313L14.3991 14.6315L14.3899 14.6369C14.3739 14.6432 14.3509 14.6511 14.323 14.6597C14.2942 14.6687 14.266 14.6767 14.2446 14.6825L14.2377 14.6844L14.1078 14.7017H2.01191H1.94995C1.94991 14.7017 1.94987 14.7017 1.94984 14.7017L1.93794 14.7012C1.92565 14.7006 1.90601 14.6994 1.88167 14.6967C1.83044 14.691 1.77089 14.6803 1.7184 14.6628C1.64673 14.6389 1.61924 14.6233 1.60611 14.6146C1.59369 14.6065 1.57438 14.5917 1.53197 14.5446C1.51883 14.53 1.50671 14.5167 1.49673 14.5058C1.49472 14.5036 1.49279 14.5014 1.49096 14.4994C1.48021 14.4876 1.47315 14.4798 1.46763 14.4736C1.46238 14.4603 1.45432 14.438 1.44112 14.3984C1.4004 14.2762 1.39586 14.2299 1.41155 14.1006C1.41154 14.1006 1.41164 14.0998 1.41192 14.098L1.41315 14.0909C1.41429 14.0848 1.41588 14.0771 1.41797 14.0679C1.42222 14.0493 1.42761 14.0287 1.43334 14.0084C1.439 13.9883 1.44441 13.9706 1.44837 13.958L1.45281 13.944L1.45369 13.9413L1.45371 13.9413L1.45373 13.9412L1.45376 13.9411L1.45377 13.9411L1.45382 13.941L1.45387 13.9408L1.454 13.9404L2.37161 11.1876L2.53275 11.1885Z" fill="currentColor" stroke="#9A9A9A"/>
</svg>
