<svg width="32" height="32" viewBox="0 0 32 32" fill="none" xmlns="http://www.w3.org/2000/svg">
<rect opacity="0.3" x="5.3335" y="6.66602" width="21.3333" height="2.66667" rx="1.33333" fill="black"/>
<rect opacity="0.3" x="5.3335" y="17.334" width="21.3333" height="2.66667" rx="1.33333" fill="black"/>
<path fill-rule="evenodd" clip-rule="evenodd" d="M6.66683 12C5.93045 12 5.3335 12.597 5.3335 13.3333C5.3335 14.0697 5.93045 14.6667 6.66683 14.6667H17.3335C18.0699 14.6667 18.6668 14.0697 18.6668 13.3333C18.6668 12.597 18.0699 12 17.3335 12H6.66683ZM6.66683 22.6667C5.93045 22.6667 5.3335 23.2636 5.3335 24C5.3335 24.7364 5.93045 25.3333 6.66683 25.3333H17.3335C18.0699 25.3333 18.6668 24.7364 18.6668 24C18.6668 23.2636 18.0699 22.6667 17.3335 22.6667H6.66683Z" fill="black"/>
</svg>
