<svg width="32" height="32" viewBox="0 0 32 32" fill="none" xmlns="http://www.w3.org/2000/svg">
<rect opacity="0.3" x="5.3335" y="6.66602" width="13.33" height="2.66667" rx="1.33333" fill="black"/>
<rect opacity="0.3" x="5.3335" y="17.334" width="13.33" height="2.66667" rx="1.33333" fill="black"/>
<path fill-rule="evenodd" clip-rule="evenodd" d="M6.66683 12C5.93045 12 5.3335 12.597 5.3335 13.3333C5.3335 14.0697 5.93045 14.6667 6.66683 14.6667H25.3302C26.0665 14.6667 26.6635 14.0697 26.6635 13.3333C26.6635 12.597 26.0665 12 25.3302 12H6.66683ZM6.66683 22.666C5.93045 22.666 5.3335 23.263 5.3335 23.9994C5.3335 24.7357 5.93045 25.3327 6.66683 25.3327H25.3302C26.0665 25.3327 26.6635 24.7357 26.6635 23.9994C26.6635 23.263 26.0665 22.666 25.3302 22.666H6.66683Z" fill="black"/>
</svg>
