<svg width="16" height="16" viewBox="0 0 16 16" fill="none" xmlns="http://www.w3.org/2000/svg">
<path fill-rule="evenodd" clip-rule="evenodd" d="M14.4921 11.8088C14.8077 12.1244 15.3472 11.8998 15.3457 11.4535L15.336 8.73684V3.68421C15.336 2.75405 14.5819 2 13.6518 2H5.79212C4.86196 2 4.10791 2.75405 4.10791 3.68421V6H7.66669C9.32354 6 10.6667 7.34315 10.6667 9V10.4211H13.1044L14.4921 11.8088Z" fill="currentColor"/>
<path opacity="0.3" fill-rule="evenodd" clip-rule="evenodd" d="M1.32349 12.0007V8.66732C1.32349 7.93094 1.92044 7.33398 2.65682 7.33398H7.99015C8.72653 7.33398 9.32349 7.93094 9.32349 8.66732V12.0007C9.32349 12.737 8.72653 13.334 7.99015 13.334H2.73397L2.18665 13.8578C1.86864 14.1622 1.34092 13.9368 1.34092 13.4966V12.2168C1.32945 12.1465 1.32349 12.0743 1.32349 12.0007ZM4.00012 9.66732C4.00012 9.48322 4.14935 9.33398 4.33345 9.33398H7.66678C7.85088 9.33398 8.00012 9.48322 8.00012 9.66732C8.00012 9.85141 7.85088 10.0007 7.66678 10.0007H4.33345C4.14935 10.0007 4.00012 9.85141 4.00012 9.66732ZM6.33345 10.6673C6.14935 10.6673 6.00012 10.8166 6.00012 11.0007C6.00012 11.1847 6.14935 11.334 6.33345 11.334H7.66678C7.85088 11.334 8.00012 11.1847 8.00012 11.0007C8.00012 10.8166 7.85088 10.6673 7.66678 10.6673H6.33345Z" fill="currentColor"/>
</svg>
