<svg width="16" height="16" viewBox="0 0 16 16" fill="none" xmlns="http://www.w3.org/2000/svg">
<path opacity="0.3" d="M12.6666 2H3.33325C2.22868 2 1.33325 2.89543 1.33325 4V10.4444C1.33325 11.3036 2.0297 12 2.88881 12C3.31836 12 3.66659 12.3482 3.66659 12.7778V13.8385C3.66659 14.4775 4.3787 14.8586 4.91035 14.5042L7.15504 13.0077C8.14064 12.3506 9.29869 12 10.4832 12H12.6666C13.7712 12 14.6666 11.1046 14.6666 10V4C14.6666 2.89543 13.7712 2 12.6666 2Z" fill="#9A9A9A"/>
<rect x="4" y="8" width="4.66667" height="1.33333" rx="0.666667" fill="#9A9A9A"/>
<rect x="4" y="4.66602" width="8" height="1.33333" rx="0.666667" fill="#9A9A9A"/>
</svg>
