<svg width="16" height="16" viewBox="0 0 16 16" fill="none" xmlns="http://www.w3.org/2000/svg">
<path opacity="0.5" d="M9.66848 14.3474L4.31009 8.90471C3.64485 8.22899 3.64485 7.14448 4.31009 6.46875L9.66848 1.02601C10.7582 -0.0808479 12.6417 0.690768 12.6417 2.24399V13.1294C12.6417 14.6827 10.7582 15.4543 9.66848 14.3474Z" fill="#9A9A9A"/>
<path d="M6.86875 11.5255H3.68635C3.12544 11.5255 2.6665 11.0666 2.6665 10.5057V4.86794C2.6665 4.30702 3.12544 3.84809 3.68635 3.84809H6.86875V11.5255Z" fill="#464E5F"/>
<path d="M15.3449 16C15.1773 16 15.0096 15.936 14.8817 15.8081L0.191886 1.11836C-0.063962 0.862509 -0.063962 0.447734 0.191886 0.191886C0.447734 -0.063962 0.862509 -0.063962 1.11836 0.191886L15.8081 14.8817C16.064 15.1375 16.064 15.5523 15.8081 15.8081C15.6802 15.936 15.5126 16 15.3449 16Z" fill="#F64E60"/>
</svg>
