<svg width="16" height="16" viewBox="0 0 16 16" fill="none" xmlns="http://www.w3.org/2000/svg">
<path d="M0 7.90039C0 7.07196 0.671573 6.40039 1.5 6.40039H3.3C4.12843 6.40039 4.8 7.07196 4.8 7.90039V9.70039C4.8 10.5288 4.12843 11.2004 3.3 11.2004H1.5C0.671572 11.2004 0 10.5288 0 9.70039V7.90039Z" fill="currentColor"/>
<path opacity="0.3" d="M5.6001 1.5C5.6001 0.671572 6.27167 0 7.1001 0H8.9001C9.72853 0 10.4001 0.671573 10.4001 1.5V3.3C10.4001 4.12843 9.72852 4.8 8.9001 4.8H7.1001C6.27167 4.8 5.6001 4.12843 5.6001 3.3V1.5Z" fill="currentColor"/>
<path d="M11.2 7.90039C11.2 7.07196 11.8715 6.40039 12.7 6.40039H14.5C15.3284 6.40039 16 7.07196 16 7.90039V9.70039C16 10.5288 15.3284 11.2004 14.5 11.2004H12.7C11.8715 11.2004 11.2 10.5288 11.2 9.70039V7.90039Z" fill="currentColor"/>
</svg>
