<svg width="18" height="20" viewBox="0 0 18 20" fill="none" xmlns="http://www.w3.org/2000/svg">
<path d="M16.312 13.7365C15.1669 12.7473 14.3481 10.1188 14.3481 7.03127C14.3481 4.69426 12.8447 2.71292 10.753 1.98737C10.6122 1.14422 9.88369 0.5 9.00006 0.5C8.11646 0.5 7.38794 1.14422 7.24708 1.98734C5.15542 2.71289 3.65204 4.69426 3.65204 7.03127C3.65204 10.1182 2.8338 12.7461 1.68812 13.7365C1.04875 14.2893 0.680908 15.092 0.680908 15.9375C0.680908 16.9214 1.47895 17.7188 2.46357 17.7188H7.21737C7.21737 18.7026 8.01541 19.5 9.00003 19.5C9.98466 19.5 10.7827 18.7026 10.7827 17.7188H15.5365C16.5211 17.7188 17.3192 16.9214 17.3192 15.9375C17.3192 15.0926 16.952 14.2893 16.312 13.7365ZM2.46357 15.9375C2.46357 15.6098 2.60619 15.2981 2.85397 15.0837C4.4459 13.7086 5.43468 10.6228 5.43468 7.03124C5.43468 5.06653 7.03375 3.46873 9.00003 3.46873C10.9663 3.46873 12.5654 5.06653 12.5654 7.03124C12.5654 10.6228 13.5542 13.7086 15.1461 15.0837C15.3945 15.2986 15.5365 15.6097 15.5365 15.9375H2.46357Z" fill="#9A9A9A"/>
</svg>
