<svg width="20" height="20" viewBox="0 0 20 20" fill="none" xmlns="http://www.w3.org/2000/svg">
<path d="M11.4571 1.08694C11.4353 1.07593 11.4109 1.07071 11.3865 1.0718C11.362 1.07288 11.3383 1.08023 11.3175 1.09314C11.2967 1.10605 11.2796 1.12408 11.2677 1.14551C11.2559 1.16693 11.2498 1.19104 11.25 1.21551V2.36194C11.25 2.46016 11.3018 2.55123 11.3839 2.6048C11.7866 2.85826 12.1592 3.1566 12.4946 3.49409C13.0785 4.0798 13.5375 4.76016 13.8571 5.5173C14.1877 6.30111 14.3571 7.14342 14.3553 7.99409C14.3553 8.85301 14.1875 9.68694 13.8571 10.4709C13.5378 11.2269 13.0752 11.914 12.4946 12.4941C11.916 13.0761 11.2294 13.5395 10.4732 13.8584C9.69104 14.1905 8.85712 14.3584 7.99997 14.3584C7.14283 14.3584 6.3089 14.1905 5.52676 13.8584C4.77058 13.5395 4.08392 13.0761 3.50533 12.4941C2.9248 11.914 2.46211 11.2269 2.14283 10.4709C1.81226 9.68707 1.64283 8.84475 1.64462 7.99409C1.64462 7.13516 1.81247 6.30123 2.14283 5.5173C2.46247 4.76016 2.9214 4.0798 3.50533 3.49409C3.84462 3.1548 4.21604 2.85837 4.61604 2.6048C4.69997 2.55301 4.74997 2.46016 4.74997 2.36194V1.21373C4.74997 1.10658 4.63747 1.03873 4.54283 1.08516C2.04462 2.3423 0.321402 4.91551 0.285687 7.89766C0.235687 12.1619 3.72319 15.7048 7.98569 15.7137C12.2535 15.7227 15.7143 12.2619 15.7143 7.9923C15.7143 4.97087 13.9821 2.3548 11.4571 1.08694ZM7.42854 8.85659H8.5714C8.64997 8.85659 8.71426 8.7923 8.71426 8.71373V0.428013C8.71426 0.349442 8.64997 0.285156 8.5714 0.285156H7.42854C7.34997 0.285156 7.28569 0.349442 7.28569 0.428013V8.71373C7.28569 8.7923 7.34997 8.85659 7.42854 8.85659Z" fill="currentColor"/>
</svg>
