<svg width="16" height="16" viewBox="0 0 16 16" fill="none" xmlns="http://www.w3.org/2000/svg">
<rect opacity="0.3" width="8" height="1.33333" rx="0.666667" transform="matrix(-1 0 0 1 13.3333 7.33398)" fill="currentColor"/>
<path d="M11.9737 7.70103L10.917 6.82045C10.6035 6.55922 10.582 6.0852 10.8706 5.79666C11.1304 5.53685 11.5477 5.52459 11.8223 5.76869L13.4924 7.25324C13.9399 7.65103 13.9399 8.35027 13.4924 8.74806L11.8223 10.2326C11.5477 10.4767 11.1304 10.4645 10.8706 10.2046C10.582 9.9161 10.6035 9.44208 10.917 9.18085L11.9737 8.30027C12.1608 8.14434 12.1608 7.85696 11.9737 7.70103Z" fill="currentColor"/>
<path d="M10.6667 3.77778V4C10.6667 4.36819 10.3683 4.66667 10.0001 4.66667C9.63189 4.66667 9.33341 4.36819 9.33341 4C9.33341 3.63181 9.03494 3.33333 8.66675 3.33333H4.33341C3.78113 3.33333 3.33341 3.78105 3.33341 4.33333V11.6667C3.33341 12.219 3.78113 12.6667 4.33341 12.6667H8.66675C9.03494 12.6667 9.33341 12.3682 9.33341 12C9.33341 11.6318 9.63189 11.3333 10.0001 11.3333C10.3683 11.3333 10.6667 11.6318 10.6667 12V12.2222C10.6667 13.2041 9.87081 14 8.88897 14H4.00008C2.89551 14 2.00008 13.1046 2.00008 12V4C2.00008 2.89543 2.89551 2 4.00008 2H8.88897C9.87081 2 10.6667 2.79594 10.6667 3.77778Z" fill="currentColor"/>
</svg>
