<svg width="20" height="20" viewBox="0 0 20 20" fill="none" xmlns="http://www.w3.org/2000/svg">
<path d="M5.10969 1.50632C4.20741 1.75498 3.31125 2.02538 2.42201 2.31726C2.34081 2.34357 2.26863 2.39215 2.21369 2.45747C2.15875 2.52279 2.12326 2.60223 2.11127 2.68674C1.58643 6.62495 2.79906 9.49832 4.24569 11.3912C4.85818 12.2006 5.5885 12.9137 6.41233 13.5066C6.74012 13.7378 7.03001 13.9045 7.25833 14.0116C7.37201 14.0656 7.46486 14.1016 7.53591 14.1234C7.56698 14.1343 7.59902 14.1422 7.63159 14.1471C7.66378 14.1418 7.69547 14.1339 7.72633 14.1234C7.79833 14.1016 7.89117 14.0656 8.00486 14.0116C8.23223 13.9045 8.52307 13.7368 8.85086 13.5066C9.67467 12.9136 10.405 12.2006 11.0175 11.3912C12.4641 9.49926 13.6768 6.62495 13.1519 2.68674C13.14 2.60219 13.1046 2.5227 13.0496 2.45736C12.9947 2.39202 12.9224 2.34347 12.8412 2.31726C12.2244 2.11547 11.1833 1.78674 10.1535 1.50726C9.10191 1.22211 8.13465 1.01084 7.63159 1.01084C7.12949 1.01084 6.16127 1.22211 5.10969 1.50726V1.50632ZM4.85769 0.530526C5.88559 0.251053 6.97791 0 7.63159 0C8.28528 0 9.3776 0.251053 10.4055 0.530526C11.4571 0.814737 12.5172 1.15105 13.1405 1.35474C13.4012 1.44081 13.6322 1.59865 13.8072 1.81014C13.9822 2.02162 14.0939 2.27817 14.1296 2.55032C14.6942 6.79168 13.384 9.93505 11.7943 12.0145C11.1202 12.9041 10.3164 13.6874 9.40981 14.3384C9.09631 14.5637 8.76416 14.7618 8.41696 14.9305C8.1517 15.0556 7.86654 15.1579 7.63159 15.1579C7.39665 15.1579 7.11243 15.0556 6.84622 14.9305C6.49903 14.7618 6.16687 14.5637 5.85338 14.3384C4.94677 13.6874 4.14298 12.9041 3.46885 12.0145C1.87916 9.93505 0.568952 6.79168 1.13358 2.55032C1.16929 2.27817 1.28104 2.02162 1.45599 1.81014C1.63094 1.59865 1.86201 1.44081 2.12264 1.35474C3.02756 1.05803 3.93951 0.783213 4.85769 0.530526V0.530526Z" fill="currentColor"/>
<path opacity="0.3" d="M9.5 6.49922C9.50016 6.80954 9.40407 7.11228 9.22497 7.36571C9.04587 7.61914 8.79258 7.81078 8.5 7.91422L8.885 9.90422C8.89901 9.9766 8.89684 10.0512 8.87864 10.1226C8.86045 10.1941 8.82668 10.2606 8.77976 10.3175C8.73283 10.3743 8.67392 10.4201 8.60723 10.4515C8.54054 10.483 8.46772 10.4992 8.394 10.4992H7.606C7.53236 10.4991 7.45966 10.4827 7.3931 10.4512C7.32653 10.4197 7.26774 10.3739 7.22093 10.3171C7.17412 10.2602 7.14044 10.1938 7.1223 10.1224C7.10416 10.051 7.10201 9.97652 7.116 9.90422L7.5 7.91422C7.24076 7.82256 7.0117 7.66141 6.83786 7.44838C6.66401 7.23535 6.55206 6.97863 6.51425 6.70628C6.47644 6.43392 6.51422 6.15642 6.62345 5.90408C6.73269 5.65175 6.90919 5.43429 7.13365 5.27548C7.35812 5.11667 7.62192 5.02262 7.89623 5.00359C8.17053 4.98457 8.44479 5.04131 8.68903 5.16762C8.93327 5.29392 9.13809 5.48493 9.28111 5.71978C9.42414 5.95462 9.49986 6.22425 9.5 6.49922Z" fill="currentColor"/>
</svg>
