<svg width="20" height="20" viewBox="0 0 20 20" fill="none" xmlns="http://www.w3.org/2000/svg">
<path opacity="0.8" fill-rule="evenodd" clip-rule="evenodd" d="M10.9583 0.996893H4.97694C4.71255 0.996893 4.45898 1.10192 4.27203 1.28888C4.08508 1.47583 3.98005 1.72939 3.98005 1.99379V13.9565C3.98005 14.2209 4.08508 14.4745 4.27203 14.6614C4.45898 14.8484 4.71255 14.9534 4.97694 14.9534H10.9583C11.2227 14.9534 11.4763 14.8484 11.6632 14.6614C11.8502 14.4745 11.9552 14.2209 11.9552 13.9565V1.99379C11.9552 1.72939 11.8502 1.47583 11.6632 1.28888C11.4763 1.10192 11.2227 0.996893 10.9583 0.996893ZM4.97694 0C4.44816 0 3.94103 0.210059 3.56712 0.583967C3.19321 0.957874 2.98315 1.465 2.98315 1.99379V13.9565C2.98315 14.4853 3.19321 14.9924 3.56712 15.3663C3.94103 15.7402 4.44816 15.9503 4.97694 15.9503H10.9583C11.4871 15.9503 11.9942 15.7402 12.3681 15.3663C12.742 14.9924 12.9521 14.4853 12.9521 13.9565V1.99379C12.9521 1.465 12.742 0.957874 12.3681 0.583967C11.9942 0.210059 11.4871 0 10.9583 0L4.97694 0Z" fill="currentColor"/>
<path opacity="0.3" fill-rule="evenodd" clip-rule="evenodd" d="M7.95734 13.6539C8.22174 13.6539 8.4753 13.5489 8.66225 13.362C8.84921 13.175 8.95424 12.9214 8.95424 12.657C8.95424 12.3927 8.84921 12.1391 8.66225 11.9521C8.4753 11.7652 8.22174 11.6602 7.95734 11.6602C7.69295 11.6602 7.43939 11.7652 7.25243 11.9521C7.06548 12.1391 6.96045 12.3927 6.96045 12.657C6.96045 12.9214 7.06548 13.175 7.25243 13.362C7.43939 13.5489 7.69295 13.6539 7.95734 13.6539Z" fill="currentColor"/>
</svg>
