  <svg
    width="90"
    height="80"
    viewBox="0 0 60 60"
    fill="none"
    xmlns="http://www.w3.org/2000/svg"
  >
<path d="M45.3263 43.2813C45.5415 42.5251 46.329 42.0865 47.0852 42.3017C47.8415 42.5168 48.2801 43.3043 48.0649 44.0606C47.373 46.4923 45.4402 48.3981 42.9427 49.0225L19.8017 54.8075C15.8899 55.7114 12.0527 53.3467 11.1642 49.4965L5.18377 23.5815C4.31114 19.8 6.62829 16.0165 10.3932 15.0753L15.7717 13.7306C16.5345 13.54 17.3075 14.0037 17.4981 14.7665C17.6888 15.5293 17.2251 16.3022 16.4623 16.4929L11.0838 17.8375C8.82482 18.4023 7.43453 20.6724 7.95811 22.9412L13.9385 48.8563C14.4716 51.1662 16.7737 52.5849 19.1359 52.0393L42.2521 46.2603C43.7516 45.8854 44.9105 44.7426 45.3263 43.2813ZM52.2932 34.3065V12.1181C52.2932 9.75939 50.3811 7.84725 48.0223 7.84725H22.3971C20.0383 7.84725 18.1262 9.75939 18.1262 12.1181V28.612L24.2377 22.5005C24.7936 21.9445 25.695 21.9445 26.251 22.5005L36.8147 33.0642L44.3854 28.0171C44.95 27.6407 45.7019 27.7151 46.1817 28.195L52.2932 34.3065ZM52.2576 38.2975L44.9937 31.0336L37.423 36.0807C36.8584 36.4571 36.1065 36.3827 35.6267 35.9028L25.2443 25.5204L18.1262 32.6386V37.7434C18.1262 40.1021 20.0383 42.0143 22.3971 42.0143H48.0223C50.1933 42.0143 51.9859 40.3945 52.2576 38.2975ZM22.3971 5H48.0223C51.9536 5 55.1405 8.1869 55.1405 12.1181V37.7434C55.1405 41.6746 51.9536 44.8615 48.0223 44.8615H22.3971C18.4658 44.8615 15.2789 41.6746 15.2789 37.7434V12.1181C15.2789 8.1869 18.4658 5 22.3971 5ZM40.9042 10.6945H46.5987C48.1712 10.6945 49.446 11.9693 49.446 13.5418V19.2363C49.446 20.8088 48.1712 22.0835 46.5987 22.0835H40.9042C39.3317 22.0835 38.0569 20.8088 38.0569 19.2363V13.5418C38.0569 11.9693 39.3317 10.6945 40.9042 10.6945ZM40.9042 13.5418V19.2363H46.5987V13.5418H40.9042Z"  fill="currentColor"/>
</svg>
