<svg width="1em" height="1em" viewBox="1 1 15 15" fill="currentColor" xmlns="http://www.w3.org/2000/svg">
    <path d="M7.07244 5.15798L3.86057 3.25915C3.59961 3.10494 3.19995 3.25459 3.19995 3.636V7.43275C3.19995 7.77493 3.57132 7.98114 3.86057 7.8096L7.07244 5.91168C7.35896 5.74287 7.35987 5.32679 7.07244 5.15798V5.15798Z" fill="currentColor" />
    <path opacity="0.3" fill-rule="evenodd" clip-rule="evenodd" d="M8.66663 4.16602C8.66663 3.33759 9.3382 2.66602 10.1666 2.66602H11.8333C12.6617 2.66602 13.3333 3.33759 13.3333 4.16602V5.83268C13.3333 6.66111 12.6617 7.33268 11.8333 7.33268H10.1666C9.3382 7.33268 8.66663 6.66111 8.66663 5.83268V4.16602ZM2.66663 10.166C2.66663 9.33759 3.3382 8.66602 4.16663 8.66602H5.83329C6.66172 8.66602 7.33329 9.33759 7.33329 10.166V11.8327C7.33329 12.6611 6.66172 13.3327 5.83329 13.3327H4.16663C3.3382 13.3327 2.66663 12.6611 2.66663 11.8327V10.166ZM10.1666 8.66602C9.3382 8.66602 8.66663 9.33759 8.66663 10.166V11.8327C8.66663 12.6611 9.3382 13.3327 10.1666 13.3327H11.8333C12.6617 13.3327 13.3333 12.6611 13.3333 11.8327V10.166C13.3333 9.33759 12.6617 8.66602 11.8333 8.66602H10.1666Z" fill="currentColor" />
</svg>