<svg width="16" height="16" viewBox="0 0 16 16" fill="none" xmlns="http://www.w3.org/2000/svg">
<path d="M1 8C1 6.52174 1.46799 5.08144 2.33688 3.8855C3.20578 2.68957 4.43098 1.79941 5.83688 1.3426C7.24279 0.885798 8.75722 0.885799 10.1631 1.34261C11.569 1.79941 12.7942 2.68957 13.6631 3.88551" stroke="#3699FF" stroke-width="2" stroke-linecap="round"/>
<path opacity="0.3" d="M1 8C1 6.14348 1.7375 4.36301 3.05025 3.05025C4.36301 1.7375 6.14349 1 8 1C9.85652 1 11.637 1.7375 12.9497 3.05025C14.2625 4.36301 15 6.14348 15 8C15 9.85652 14.2625 11.637 12.9497 12.9497C11.637 14.2625 9.85652 15 8 15C6.14348 15 4.36301 14.2625 3.05025 12.9497C1.7375 11.637 1 9.85652 1 8L1 8Z" stroke="#3699FF" stroke-width="2"/>
</svg>
