<svg width="20" height="20" viewBox="0 0 20 20" fill="none" xmlns="http://www.w3.org/2000/svg">
<path d="M8.37848 7.64877L3.81955 1.82377C3.76598 1.75413 3.68205 1.71484 3.59455 1.71484H2.21419C2.09455 1.71484 2.02848 1.85234 2.10169 1.9452L6.84098 8.00056L2.10169 14.0559C2.0852 14.077 2.07497 14.1022 2.07217 14.1288C2.06937 14.1554 2.0741 14.1823 2.08584 14.2063C2.09757 14.2303 2.11583 14.2506 2.13853 14.2647C2.16123 14.2789 2.18745 14.2863 2.21419 14.2863H3.59455C3.68205 14.2863 3.76598 14.2452 3.81955 14.1773L8.37848 8.35413C8.54098 8.1452 8.54098 7.85592 8.37848 7.64877ZM13.807 7.64877L9.24812 1.82377C9.19455 1.75413 9.11062 1.71484 9.02312 1.71484H7.64276C7.52312 1.71484 7.45705 1.85234 7.53026 1.9452L12.2695 8.00056L7.53026 14.0559C7.51377 14.077 7.50354 14.1022 7.50074 14.1288C7.49794 14.1554 7.50267 14.1823 7.51441 14.2063C7.52615 14.2303 7.54441 14.2506 7.5671 14.2647C7.5898 14.2789 7.61602 14.2863 7.64276 14.2863H9.02312C9.11062 14.2863 9.19455 14.2452 9.24812 14.1773L13.807 8.35413C13.9695 8.1452 13.9695 7.85592 13.807 7.64877Z" fill="currentColor"/>
</svg>
