<svg width="20" height="20" viewBox="0 0 20 20" fill="none" xmlns="http://www.w3.org/2000/svg">
<path opacity="0.3" d="M11.8151 13.7265C11.506 13.4173 11.506 12.916 11.8151 12.6069C12.1243 12.2977 12.6255 12.2977 12.9347 12.6069L16.1014 15.7735C16.4105 16.0827 16.4105 16.584 16.1014 16.8931C15.7922 17.2023 15.291 17.2023 14.9818 16.8931L11.8151 13.7265Z" fill="currentColor"/>
<path fill-rule="evenodd" clip-rule="evenodd" d="M3.66675 9.20768C3.66675 12.2683 6.14784 14.7493 9.20842 14.7493C12.269 14.7493 14.7501 12.2683 14.7501 9.20768C14.7501 6.1471 12.269 3.66602 9.20842 3.66602C6.14784 3.66602 3.66675 6.1471 3.66675 9.20768ZM13.1667 9.20768C13.1667 11.3938 11.3945 13.166 9.20842 13.166C7.02229 13.166 5.25008 11.3938 5.25008 9.20768C5.25008 7.02156 7.02229 5.24935 9.20842 5.24935C11.3945 5.24935 13.1667 7.02156 13.1667 9.20768Z" fill="currentColor"/>
</svg>
