<svg width="16" height="16" viewBox="0 0 16 16" fill="none" xmlns="http://www.w3.org/2000/svg">
<g clip-path="url(#clip0_598_1176)">
<path opacity="0.32" d="M8.6469 12.2667L5.51562 15.3886C5.4219 15.4449 5.30003 15.5855 5.04687 15.5105C4.91566 15.4636 4.75625 15.3136 4.72816 15.1449V15.1355L3.82812 9.75427L4.55941 9.20117C4.65409 9.2567 6.46109 10.3163 6.35 10.2512L8.64687 11.6012C8.82503 11.7886 8.82503 12.0793 8.6469 12.2667Z" fill="#9A9A9A"/>
<path opacity="0.7" d="M15.9909 1.02954L13.1469 15.1543C13.1188 15.3043 13.0062 15.4355 12.8562 15.4918C12.8 15.5199 12.7437 15.5293 12.6875 15.5293C12.5938 15.5293 12.5 15.5012 12.4156 15.4449C12.3213 15.3775 5.41372 10.4435 5.85313 10.7574C1.67063 8.68555 3.85228 9.77451 0.2625 7.98242C0.09375 7.89804 0 7.72929 0 7.55117C0.009375 7.36367 0.1125 7.20429 0.28125 7.12929L15.344 0.504544C15.5034 0.438919 15.6909 0.457669 15.8221 0.570169C15.8409 0.588919 15.869 0.617044 15.8877 0.635794C15.9815 0.748294 16.019 0.888919 15.9909 1.02954Z" fill="#9A9A9A"/>
<path d="M15.8877 0.636719L6.35 10.2521L5.85316 10.7583L5.04688 15.5114C4.91566 15.4646 4.75625 15.3145 4.72816 15.1458V15.1364L3.82812 9.75519L4.55941 9.20209L15.8877 0.636719Z" fill="#9A9A9A"/>
</g>
<defs>
<clipPath id="clip0_598_1176">
<rect width="16" height="16" fill="white"/>
</clipPath>
</defs>
</svg>
