<svg width="16" height="16" viewBox="0 0 16 16" fill="none" xmlns="http://www.w3.org/2000/svg">
<path fill-rule="evenodd" clip-rule="evenodd" d="M4.66667 2C3.19391 2 2 3.19391 2 4.66667C2 6.13943 3.19391 7.33333 4.66667 7.33333H11.3333C12.8061 7.33333 14 6.13943 14 4.66667C14 3.19391 12.8061 2 11.3333 2H4.66667ZM6 4.66666C6 5.40304 5.40305 6 4.66667 6C3.93029 6 3.33333 5.40304 3.33333 4.66666C3.33333 3.93028 3.93029 3.33333 4.66667 3.33333C5.40305 3.33333 6 3.93028 6 4.66666Z" fill="currentColor"/>
<path opacity="0.3" fill-rule="evenodd" clip-rule="evenodd" d="M4.66666 8.66602C3.19391 8.66602 2 9.85992 2 11.3327C2 12.8054 3.19391 13.9993 4.66667 13.9993H11.3333C12.8061 13.9993 14 12.8054 14 11.3327C14 9.85992 12.8061 8.66602 11.3333 8.66602H4.66666ZM12.6667 11.3327C12.6667 12.0691 12.0697 12.666 11.3333 12.666C10.597 12.666 10 12.0691 10 11.3327C10 10.5963 10.597 9.99935 11.3333 9.99935C12.0697 9.99935 12.6667 10.5963 12.6667 11.3327Z" fill="currentColor"/>
</svg>
