<svg width="16" height="16" viewBox="0 0 16 16" fill="none" xmlns="http://www.w3.org/2000/svg">
<g clip-path="url(#clip0_519_1031)">
<path d="M13.541 10.2621C13.6128 10.0947 13.7769 9.98599 13.9565 9.9853H14.0166C15.1103 9.9853 16 9.09556 16 8.00194C16 6.90835 15.1103 6.0186 14.0166 6.0186H13.9056C13.7515 6.01798 13.6103 5.9401 13.527 5.81473C13.5178 5.7692 13.5037 5.72467 13.4849 5.68192C13.4094 5.51098 13.4445 5.31433 13.5743 5.18011L13.6097 5.14467C13.6107 5.14373 13.6117 5.14277 13.6126 5.1418C13.987 4.76699 14.193 4.2688 14.1927 3.73902C14.1924 3.21015 13.9865 2.713 13.6129 2.33881C13.6119 2.33781 13.6109 2.33685 13.61 2.33585C13.2354 1.96169 12.7377 1.75572 12.2083 1.75572C12.208 1.75572 12.2076 1.75572 12.2072 1.75572C11.6774 1.75601 11.1794 1.9626 10.8053 2.33716L10.7683 2.37422C10.6341 2.50394 10.4374 2.53906 10.2665 2.46363C10.2643 2.46272 10.2622 2.46178 10.2601 2.46088C10.0927 2.38913 9.984 2.22503 9.98332 2.04547V1.98529C9.98332 0.891698 9.09357 0.00195312 7.99995 0.00195312C6.90633 0.00195312 6.01662 0.891698 6.01662 1.98529V2.09638C6.016 2.2505 5.93812 2.39166 5.81275 2.47491C5.76722 2.48413 5.72269 2.49825 5.67994 2.51709C5.50903 2.59256 5.31234 2.55744 5.17813 2.42769L5.13981 2.38935C4.76522 2.01519 4.26757 1.80922 3.7382 1.80922C3.73782 1.80922 3.73738 1.80922 3.73704 1.80922C3.20726 1.8095 2.7093 2.0161 2.33386 2.39197C1.95946 2.76675 1.75343 3.26493 1.75374 3.79471C1.75402 4.32449 1.96061 4.82242 2.33517 5.19655L2.37221 5.23358C2.50195 5.3678 2.53708 5.56442 2.46164 5.73539C2.45611 5.74786 2.45105 5.76048 2.44633 5.77326C2.38183 5.94857 2.22055 6.06532 2.03433 6.07204H1.9833C0.889745 6.07204 0 6.96179 0 8.05537C0 9.14902 0.889745 10.0387 1.98339 10.0387H2.09446C2.27664 10.0394 2.44067 10.148 2.51242 10.3155C2.51333 10.3176 2.51427 10.3197 2.51517 10.3218C2.59064 10.4928 2.55552 10.6894 2.42574 10.8237L2.3887 10.8607C2.38786 10.8615 2.38702 10.8624 2.38614 10.8633C2.01255 11.2379 1.80699 11.7356 1.80727 12.2648C1.80755 12.7945 2.01414 13.2925 2.38895 13.6669C2.38986 13.6678 2.3908 13.6687 2.39174 13.6697C3.16561 14.4409 4.42254 14.4396 5.19459 13.6666L5.23166 13.6296C5.36584 13.4998 5.5625 13.4647 5.73344 13.5402C5.74587 13.5456 5.7585 13.5507 5.77128 13.5554C5.94662 13.6199 6.06334 13.7812 6.07009 13.9675V14.0185C6.07009 15.1121 6.95983 16.0018 8.05342 16.0018C9.14707 16.0018 10.0368 15.1121 10.0368 14.0185V13.9075C10.0376 13.7253 10.1462 13.5612 10.3136 13.4895C10.3158 13.4886 10.3178 13.4877 10.3199 13.4867C10.4909 13.4113 10.6876 13.4464 10.8218 13.5762L10.8601 13.6145C11.2347 13.9886 11.7324 14.1946 12.2617 14.1946C12.2621 14.1946 12.2625 14.1946 12.2629 14.1946C12.7927 14.1943 13.2906 13.9877 13.6661 13.6119C14.4389 12.8381 14.4382 11.5799 13.6648 10.8072L13.6277 10.7702C13.498 10.636 13.4629 10.4394 13.5383 10.2684C13.5393 10.2663 13.5402 10.2642 13.541 10.2621ZM12.7056 11.6761C12.7072 11.6778 12.7089 11.6795 12.7106 11.6812L12.7509 11.7215C13.0203 11.9907 13.0206 12.4289 12.7504 12.6994C12.62 12.83 12.4466 12.9019 12.2621 12.902C12.2619 12.902 12.2618 12.902 12.2616 12.902C12.0773 12.902 11.9039 12.8303 11.7727 12.6992L11.7326 12.6591C11.7309 12.6574 11.7292 12.6557 11.7275 12.654C11.2141 12.1518 10.4582 12.0142 9.80091 12.3029C9.16157 12.5785 8.74689 13.2059 8.74407 13.9049V14.0185C8.74407 14.3994 8.43423 14.7092 8.05336 14.7092C7.67252 14.7092 7.36268 14.3994 7.36268 14.0185V13.9584C7.36268 13.9533 7.36261 13.9483 7.36249 13.9432C7.34574 13.2272 6.90455 12.6038 6.23662 12.3495C5.583 12.0698 4.835 12.2093 4.32569 12.7075C4.32401 12.7092 4.32232 12.7108 4.32063 12.7125L4.28026 12.7529C4.01113 13.0223 3.57292 13.0226 3.30345 12.7534C3.30267 12.7527 3.30186 12.7519 3.30111 12.7511C3.17139 12.6209 3.09995 12.448 3.09983 12.2641C3.0997 12.0796 3.17148 11.9062 3.30186 11.7756C3.30261 11.7749 3.30332 11.7741 3.30407 11.7734L3.34276 11.7347C3.34445 11.733 3.34614 11.7313 3.34779 11.7296C3.84995 11.2163 3.9876 10.4604 3.69901 9.80308C3.42345 9.16368 2.79598 8.74896 2.09693 8.74615H1.98327C1.60243 8.74615 1.29259 8.43628 1.29259 8.05544C1.29259 7.67459 1.60246 7.36475 1.98327 7.36472H2.04346C2.04849 7.36472 2.05355 7.36466 2.05858 7.36453C2.77467 7.34778 3.39804 6.9066 3.65235 6.23867C3.93198 5.58504 3.79254 4.83711 3.29436 4.3278C3.2927 4.32611 3.29101 4.32443 3.28932 4.32274L3.24898 4.28236C3.11845 4.15196 3.04651 3.97855 3.04642 3.79406C3.04629 3.60959 3.11808 3.43609 3.24951 3.3045C3.37992 3.17397 3.55332 3.10203 3.73782 3.10193C3.73798 3.10193 3.73807 3.10193 3.73823 3.10193C3.9226 3.10193 4.09594 3.17368 4.22716 3.30478L4.26729 3.34487C4.26894 3.34656 4.27066 3.34825 4.27235 3.3499C4.75413 3.82115 5.44944 3.9714 6.07653 3.74956C6.13578 3.74196 6.19387 3.72618 6.24906 3.70252C6.89033 3.42768 7.30652 2.79928 7.3093 2.09903V1.98538C7.3093 1.60454 7.61914 1.2947 7.99998 1.2947C8.38083 1.2947 8.6907 1.60457 8.6907 1.98541V2.04816C8.69345 2.74462 9.1082 3.37209 9.7476 3.64768C10.405 3.93637 11.1607 3.79862 11.6742 3.29646C11.6758 3.29481 11.6775 3.29312 11.6792 3.29143L11.7196 3.25109C11.85 3.12056 12.0234 3.04862 12.2079 3.04853C12.2081 3.04853 12.2082 3.04853 12.2083 3.04853C12.3921 3.04853 12.565 3.11984 12.6953 3.2494C12.696 3.25015 12.6967 3.25087 12.6975 3.25162C12.828 3.38203 12.9 3.55543 12.9 3.73993C12.9002 3.92393 12.8288 4.09693 12.6991 4.22733C12.6985 4.22796 12.6979 4.22858 12.6972 4.22924L12.6571 4.26937C12.6554 4.27102 12.6538 4.27271 12.6521 4.27443C12.1808 4.75621 12.0306 5.45155 12.2524 6.0786C12.2601 6.13789 12.2758 6.19598 12.2995 6.25117C12.5743 6.89244 13.2027 7.30863 13.903 7.31141H14.0166C14.3975 7.31141 14.7073 7.62125 14.7073 8.00209C14.7073 8.38293 14.3974 8.69281 14.0166 8.69281H13.9539C13.2574 8.69556 12.63 9.1103 12.3544 9.74968C12.0657 10.4068 12.2034 11.1628 12.7056 11.6761Z" fill="currentColor"/>
<g opacity="0.3">
<path d="M8.00025 5.34766C6.53804 5.34766 5.34839 6.53727 5.34839 7.99952C5.34839 9.46176 6.53801 10.6514 8.00025 10.6514C9.4625 10.6514 10.6521 9.46176 10.6521 7.99952C10.6521 6.53727 9.46247 5.34766 8.00025 5.34766ZM8.00025 9.3587C7.25079 9.3587 6.64104 8.74898 6.64104 7.99949C6.64104 7.25002 7.25079 6.64027 8.00025 6.64027C8.74975 6.64027 9.35947 7.25002 9.35947 7.99949C9.35947 8.74895 8.74975 9.3587 8.00025 9.3587Z" fill="currentColor"/>
</g>
</g>
<defs>
<clipPath id="clip0_519_1031">
<rect width="16" height="16" fill="white"/>
</clipPath>
</defs>
</svg>
