  <svg
    width="90"
    height="80"
    viewBox="-1 -5 60 60"
    fill="none"
    xmlns="http://www.w3.org/2000/svg"
  >
<path d="M29.3108 53.3456C42.5848 53.3456 53.3456 42.5848 53.3456 29.3108C53.3456 16.0367 42.5848 5.27594 29.3108 5.27594C16.0367 5.27594 5.27594 16.0367 5.27594 29.3108C5.27594 42.5848 16.0367 53.3456 29.3108 53.3456Z" stroke="#222222" stroke-width="3.51729"/>
<path d="M29.3107 44.5523C37.7284 44.5523 44.5523 37.7284 44.5523 29.3107C44.5523 20.893 37.7284 14.0692 29.3107 14.0692C20.893 14.0692 14.0692 20.893 14.0692 29.3107C14.0692 37.7284 20.893 44.5523 29.3107 44.5523Z" stroke="#222222" stroke-width="1.75865"/>
<path d="M0 29.3108H58.6215M29.3108 0V58.6215" stroke="#FF0000" stroke-width="1.75865"/>
<path d="M29.3107 36.9315C33.5196 36.9315 36.9315 33.5196 36.9315 29.3107C36.9315 25.1019 33.5196 21.6899 29.3107 21.6899C25.1019 21.6899 21.6899 25.1019 21.6899 29.3107C21.6899 33.5196 25.1019 36.9315 29.3107 36.9315Z" fill="black"/>
</svg>
