<svg width="19" height="16" viewBox="0 0 19 16" fill="none" xmlns="http://www.w3.org/2000/svg">
<path opacity="0.5" d="M7.79908 15.419L1.83063 9.35666C1.08966 8.60401 1.08966 7.39603 1.83063 6.64338L7.79908 0.580983C9.01282 -0.651888 11.1108 0.207575 11.1108 1.93763V14.0624C11.1108 15.7924 9.01282 16.6519 7.79908 15.419Z" fill="#9A9A9A"/>
<path d="M4.68067 12.2758H1.13596C0.511182 12.2758 0 11.7647 0 11.1399V4.86032C0 4.23554 0.511182 3.72436 1.13596 3.72436H4.68067V12.2758Z" fill="#464E5F"/>
<path d="M14.5721 14.9498C14.4398 14.9498 14.3079 14.8938 14.2152 14.7852C14.0471 14.5878 14.0704 14.2919 14.2672 14.1238C16.0536 12.6012 17.0774 10.3801 17.0774 8.03054C17.0774 5.681 16.0531 3.45986 14.2667 1.93729C14.0699 1.76922 14.0466 1.47274 14.2147 1.27591C14.3828 1.07809 14.6782 1.05578 14.8761 1.22336C16.8711 2.92441 18.0159 5.40584 18.0159 8.03054C18.0159 10.6553 16.8711 13.1367 14.8766 14.8372C14.7878 14.9126 14.6802 14.9498 14.5721 14.9498Z" fill="#464E5F"/>
<path d="M13.2185 13.4327C13.0851 13.4327 12.9542 13.3756 12.863 13.2651C12.7009 13.0687 12.7286 12.7792 12.925 12.6171C14.3092 11.4748 15.1035 9.79158 15.1035 7.9988C15.1035 6.22735 14.3246 4.55654 12.9661 3.41523C12.7718 3.25162 12.7465 2.96109 12.9101 2.76674C13.0737 2.5714 13.3637 2.54711 13.5591 2.71022C15.1258 4.02704 16.0246 5.95417 16.0246 7.9988C16.0246 10.0672 15.1084 12.0092 13.5115 13.3266C13.4252 13.3984 13.3216 13.4327 13.2185 13.4327Z" fill="#464E5F"/>
<path d="M11.9488 11.9453C11.8055 11.9453 11.6632 11.8838 11.565 11.7643C11.391 11.5526 11.4218 11.2403 11.6335 11.0667C12.5561 10.3087 13.0846 9.19066 13.0846 7.99928C13.0846 6.79204 12.5447 5.66511 11.6032 4.90754C11.3895 4.736 11.3563 4.42365 11.5279 4.21046C11.7004 3.99777 12.0117 3.96306 12.2249 4.1351C13.4014 5.08206 14.0762 6.4906 14.0762 7.99928C14.0762 9.48863 13.4153 10.8858 12.2631 11.8322C12.1709 11.9086 12.0593 11.9453 11.9488 11.9453Z" fill="#464E5F"/>
</svg>
