<svg width="16" height="16" viewBox="0 0 16 16" fill="none" xmlns="http://www.w3.org/2000/svg">
<g clip-path="url(#clip0_478_953)">
<path d="M5.35399 5.119L7.53799 0.792C7.57993 0.704954 7.64547 0.631433 7.72715 0.57981C7.80883 0.528186 7.90336 0.500533 7.99999 0.5C8.18299 0.5 8.36599 0.597 8.46499 0.792L10.649 5.119L15.547 5.815C15.6691 5.83419 15.7808 5.89491 15.8633 5.98691C15.9459 6.07891 15.9941 6.19655 16 6.32C16.007 6.40219 15.9953 6.48489 15.9659 6.56194C15.9364 6.63899 15.89 6.7084 15.83 6.765L12.307 10.121L13.137 14.851C13.215 15.294 12.777 15.641 12.391 15.443L7.99999 13.187L3.61099 15.443C3.56508 15.4668 3.51587 15.4837 3.46499 15.493C3.12299 15.553 2.79699 15.239 2.86499 14.851L3.69499 10.121L0.172988 6.765C0.118233 6.7132 0.0747109 6.65069 0.0451227 6.58137C0.0155346 6.51204 0.000511966 6.43737 0.00098751 6.362C0.00103952 6.25544 0.0304489 6.15095 0.0859875 6.06C0.125386 5.99407 0.179086 5.93783 0.243125 5.89542C0.307164 5.85302 0.379908 5.82553 0.455988 5.815L5.35399 5.119ZM7.99999 12.027C8.08071 12.0267 8.16031 12.0459 8.23199 12.083L11.918 13.977L11.224 10.02C11.2076 9.929 11.2138 9.83536 11.2421 9.74731C11.2703 9.65926 11.3197 9.57949 11.386 9.515L14.293 6.745L10.241 6.169C10.1571 6.15633 10.0775 6.12351 10.0091 6.07335C9.94061 6.02319 9.88534 5.95719 9.84799 5.881L8.00099 2.223L7.99999 2.226V12.026V12.027Z" fill="#9A9A9A"/>
</g>
<defs>
<clipPath id="clip0_478_953">
<rect width="16" height="16" fill="white"/>
</clipPath>
</defs>
</svg>
