<svg width="16" height="16" viewBox="0 0 16 16" fill="none" xmlns="http://www.w3.org/2000/svg">
<g clip-path="url(#clip0_478_946)">
<path d="M2.86612 14.8492C2.78812 15.2932 3.22612 15.6402 3.61212 15.4422L8.00212 13.1862L12.3911 15.4422C12.7771 15.6402 13.2151 15.2932 13.1371 14.8502L12.3071 10.1202L15.8291 6.76419C16.1591 6.45019 15.9891 5.87619 15.5471 5.81419L10.6491 5.11819L8.46512 0.791191C8.42351 0.703479 8.35787 0.629374 8.27583 0.577483C8.19378 0.525592 8.0987 0.498047 8.00162 0.498047C7.90454 0.498047 7.80945 0.525592 7.72741 0.577483C7.64536 0.629374 7.57972 0.703479 7.53812 0.791191L5.35412 5.11919L0.456118 5.81519C0.0151183 5.87719 -0.155882 6.45119 0.173118 6.76519L3.69612 10.1212L2.86612 14.8512V14.8492ZM7.77112 12.0822L4.08512 13.9762L4.77912 10.0192C4.79538 9.9281 4.78902 9.83442 4.76059 9.74636C4.73217 9.65831 4.68256 9.57858 4.61612 9.51419L1.71012 6.74419L5.76212 6.16819C5.84602 6.15552 5.92561 6.1227 5.99405 6.07254C6.0625 6.02238 6.11776 5.95638 6.15512 5.88019L8.00012 2.22219L9.84712 5.88019C9.88447 5.95638 9.93974 6.02238 10.0082 6.07254C10.0766 6.1227 10.1562 6.15552 10.2401 6.16819L14.2921 6.74319L11.3861 9.51319C11.3195 9.57769 11.2698 9.65758 11.2414 9.74582C11.213 9.83407 11.2067 9.92795 11.2231 10.0192L11.9171 13.9762L8.23112 12.0822C8.15984 12.0454 8.08081 12.0263 8.00062 12.0263C7.92043 12.0263 7.8414 12.0454 7.77012 12.0822H7.77112Z" fill="#9A9A9A"/>
</g>
<defs>
<clipPath id="clip0_478_946">
<rect width="16" height="16" fill="white"/>
</clipPath>
</defs>
</svg>
