<svg width="16" height="16" viewBox="0 0 16 16" fill="none" xmlns="http://www.w3.org/2000/svg">
<path d="M4 5.33398V13.1673C4 13.9957 4.67157 14.6673 5.5 14.6673H10.5C11.3284 14.6673 12 13.9957 12 13.1673V5.33398H4Z" fill="currentColor"/>
<path opacity="0.3" fill-rule="evenodd" clip-rule="evenodd" d="M9.33325 3C9.33325 2.44772 8.88554 2 8.33325 2H7.66659C7.1143 2 6.66659 2.44772 6.66659 3H3.83325C3.55711 3 3.33325 3.22386 3.33325 3.5C3.33325 3.77614 3.55711 4 3.83325 4H12.1666C12.4427 4 12.6666 3.77614 12.6666 3.5C12.6666 3.22386 12.4427 3 12.1666 3H9.33325Z" fill="currentColor"/>
</svg>
