<svg width="18" height="18" viewBox="0 0 18 18" fill="none" xmlns="http://www.w3.org/2000/svg">
<path opacity="0.3" d="M4.79996 8.26667C3.62175 8.26667 2.66663 7.31154 2.66663 6.13333C2.66663 4.95513 3.62175 4 4.79996 4C5.97817 4 6.93329 4.95513 6.93329 6.13333C6.93329 7.31154 5.97817 8.26667 4.79996 8.26667Z" fill="currentColor"/>
<path fill-rule="evenodd" clip-rule="evenodd" d="M14.1216 6.92137C15.1478 5.89509 15.2751 4.31025 14.5034 3.14543L13.273 4.37582C13.0387 4.61013 12.6588 4.61013 12.4245 4.37582C12.1901 4.1415 12.1901 3.76161 12.4245 3.52729L13.6549 2.2969C12.49 1.52517 10.9052 1.65245 9.87891 2.67873C8.85263 3.70501 8.72536 5.28985 9.49708 6.45467L10.7274 5.22431C10.9618 4.99 11.3417 4.99 11.576 5.22431C11.8103 5.45863 11.8103 5.83853 11.576 6.07284L10.3456 7.3032C11.5104 8.07492 13.0953 7.94765 14.1216 6.92137ZM14.8287 7.62848C16.3908 6.06638 16.3908 3.53372 14.8287 1.97162C13.2666 0.409525 10.7339 0.409525 9.1718 1.97162C7.60971 3.53372 7.60971 6.06638 9.1718 7.62848C10.7339 9.19057 13.2666 9.19057 14.8287 7.62848ZM4.79112 9.33268C2.27302 9.33268 0.207071 10.6268 0.000347565 13.1723C-0.0109129 13.3109 0.254247 13.5993 0.388001 13.5993H9.19824C9.59889 13.5993 9.60511 13.2769 9.59889 13.1727C9.44261 10.5557 7.34465 9.33268 4.79112 9.33268Z" fill="currentColor"/>
</svg>
