<svg width="16" height="16" viewBox="0 0 16 16" fill="none" xmlns="http://www.w3.org/2000/svg">
<path d="M14.759 12.3438L8.46255 3.66345C8.23398 3.34916 7.76612 3.34916 7.53934 3.66345L1.24112 12.3438C1.22562 12.3652 1.21634 12.3904 1.2143 12.4167C1.21225 12.443 1.21754 12.4693 1.22956 12.4928C1.24158 12.5163 1.25986 12.536 1.28239 12.5497C1.30492 12.5635 1.33081 12.5707 1.35719 12.5706H2.69648C2.78755 12.5706 2.87326 12.5259 2.92684 12.4527L8.00005 5.45988L13.0733 12.4527C13.1268 12.5259 13.2126 12.5706 13.3036 12.5706H14.6429C14.759 12.5706 14.8268 12.4384 14.759 12.3438Z" fill="currentColor"/>
</svg>
