<svg width="16" height="16" viewBox="0 0 16 16" fill="none" xmlns="http://www.w3.org/2000/svg">
<path opacity="0.3" d="M8.00016 7.33333C6.5274 7.33333 5.3335 6.13943 5.3335 4.66667C5.3335 3.19391 6.5274 2 8.00016 2C9.47292 2 10.6668 3.19391 10.6668 4.66667C10.6668 6.13943 9.47292 7.33333 8.00016 7.33333Z" fill="#9A9A9A"/>
<path d="M2.00043 13.4655C2.25884 10.2837 4.84127 8.66602 7.98889 8.66602C11.1808 8.66602 13.8033 10.1948 13.9986 13.466C14.0064 13.5963 13.9986 13.9993 13.4978 13.9993C11.0274 13.9993 7.35648 13.9993 2.485 13.9993C2.31781 13.9993 1.98636 13.6388 2.00043 13.4655Z" fill="#9A9A9A"/>
</svg>
