  <svg
    width="30"
    height="30"
    viewBox="0 0 60 60"
    fill="none"
    xmlns="http://www.w3.org/2000/svg"
  >
<path d="M49.2421 27.3341C48.4754 26.3341 47.542 25.4674 46.6753 24.6007C44.4419 22.6006 41.9085 21.1673 39.7751 19.0672C34.8083 14.2004 33.7083 6.16684 36.875 0C33.7083 0.766689 30.9415 2.50007 28.5748 4.40013C19.9412 11.3337 16.5411 23.5673 20.6079 34.0676C20.7412 34.401 20.8746 34.7343 20.8746 35.1677C20.8746 35.901 20.3746 36.5677 19.7079 36.8344C18.9412 37.1677 18.1412 36.9677 17.5078 36.4344C17.3078 36.2677 17.1745 36.101 17.0411 35.8677C13.2744 31.1009 12.6744 24.2674 15.2078 18.8005C9.64093 23.334 6.60751 31.0009 7.04086 38.2344C7.24086 39.9011 7.44087 41.5679 8.00755 43.2346C8.47423 45.2346 9.37426 47.2347 10.3743 49.0014C13.9744 54.7682 20.2079 58.9017 26.9081 59.735C34.0416 60.6351 41.6752 59.335 47.142 54.4016C53.2422 48.8681 55.3756 40.0011 52.2421 32.4009L51.8088 31.5342C51.1088 30.0009 49.2421 27.3341 49.2421 27.3341ZM38.7084 48.3347C37.7751 49.1347 36.2417 50.0014 35.0417 50.3348C31.3082 51.6681 27.5748 49.8014 25.3747 47.6014C29.3415 46.668 31.7082 43.7346 32.4082 40.7678C32.9749 38.1011 31.9082 35.901 31.4749 33.3343C31.0749 30.8675 31.1415 28.7675 32.0416 26.4674C32.6749 27.7341 33.3416 29.0008 34.1416 30.0009C36.7084 33.3343 40.7418 34.801 41.6085 39.3345C41.7419 39.8011 41.8085 40.2678 41.8085 40.7678C41.9085 43.5012 40.7085 46.5013 38.7084 48.3347Z"  fill="currentColor"/>
</svg>
