  <svg
    width="1em"
    height="1em"
    viewBox="8 3 55 55"
    fill="none"
    xmlns="http://www.w3.org/2000/svg"
  >
<g filter="url(#filter0_d_819_5547)">
<path d="M20.9807 49.7308V50.4808H22.4807V49.7308H20.9807ZM20.3845 12.0384L19.6375 11.9705L19.6365 11.9841L20.3845 12.0384ZM48.6538 12.0384L49.4025 11.993L49.4018 11.9818L49.4008 11.9705L48.6538 12.0384ZM46.2884 49.7308V50.4808H47.7884V49.7308H46.2884ZM39.1619 37.2375L39.6087 37.8399L39.1619 37.2375ZM29.9918 37.2387L30.4624 36.6548L29.9918 37.2387ZM48.4673 9.98637L47.7204 10.0543L48.4673 9.98637ZM22.4807 49.7308V48.9615H20.9807V49.7308H22.4807ZM24.7307 46.7115H30.1538V45.2115H24.7307V46.7115ZM31.9038 44.9615V39.6292H30.4038V44.9615H31.9038ZM30.4624 36.6548C26.5318 33.4866 23.9979 30.6192 22.5373 26.9578C21.071 23.2821 20.6515 18.7188 21.1326 12.0928L19.6365 11.9841C19.149 18.6981 19.5541 23.5278 21.1441 27.5136C22.7398 31.5138 25.4938 34.5766 29.5211 37.8226L30.4624 36.6548ZM21.1315 12.1064L21.3181 10.0543L19.8242 9.91844L19.6376 11.9705L21.1315 12.1064ZM21.567 9.8269H47.4714V8.3269H21.567V9.8269ZM47.7204 10.0543L47.9069 12.1063L49.4008 11.9705L49.2142 9.91847L47.7204 10.0543ZM47.9052 12.0839C48.3098 18.7487 47.9611 23.4123 46.5596 27.1336C45.1686 30.8271 42.709 33.6728 38.7151 36.6351L39.6087 37.8399C43.745 34.7719 46.4378 31.7132 47.9634 27.6623C49.4785 23.6393 49.8107 18.7185 49.4025 11.993L47.9052 12.0839ZM37.1345 39.7219V44.6923H38.6345V39.7219H37.1345ZM38.8845 46.4423H44.0384V44.9423H38.8845V46.4423ZM46.2884 48.6923V49.7308H47.7884V48.6923H46.2884ZM44.0384 46.4423C45.281 46.4423 46.2884 47.4496 46.2884 48.6923H47.7884C47.7884 46.6212 46.1095 44.9423 44.0384 44.9423V46.4423ZM37.1345 44.6923C37.1345 45.6588 37.918 46.4423 38.8845 46.4423V44.9423C38.7465 44.9423 38.6345 44.8304 38.6345 44.6923H37.1345ZM38.7151 36.6351C37.7468 37.3534 37.1345 38.4882 37.1345 39.7219H38.6345C38.6345 38.9909 38.999 38.2921 39.6087 37.8399L38.7151 36.6351ZM21.3181 10.0543C21.3298 9.9255 21.4377 9.8269 21.567 9.8269V8.3269C20.6619 8.3269 19.9062 9.01706 19.8242 9.91844L21.3181 10.0543ZM31.9038 39.6292C31.9038 38.4619 31.3554 37.3746 30.4624 36.6548L29.5211 37.8226C30.0768 38.2705 30.4038 38.9358 30.4038 39.6292H31.9038ZM30.1538 46.7115C31.1203 46.7115 31.9038 45.928 31.9038 44.9615H30.4038C30.4038 45.0996 30.2918 45.2115 30.1538 45.2115V46.7115ZM47.4714 9.8269C47.6007 9.8269 47.7087 9.9255 47.7204 10.0543L49.2142 9.91847C49.1323 9.01708 48.3765 8.3269 47.4714 8.3269V9.8269ZM22.4807 48.9615C22.4807 47.7189 23.4881 46.7115 24.7307 46.7115V45.2115C22.6596 45.2115 20.9807 46.8905 20.9807 48.9615H22.4807Z"  fill="currentColor"/>
</g>
<g filter="url(#filter1_d_819_5547)">
<path d="M12.8462 55.1538C12.8462 53.497 14.1893 52.1538 15.8462 52.1538H52.9231C54.5799 52.1538 55.9231 53.497 55.9231 55.1538V57H12.8462V55.1538Z"  fill="currentColor"/>
</g>
<g filter="url(#filter2_d_819_5547)">
<path d="M34.2895 15.8312C34.3194 15.739 34.4498 15.739 34.4797 15.8312L35.8129 19.9342C35.8262 19.9754 35.8646 20.0033 35.908 20.0033H40.2221C40.319 20.0033 40.3593 20.1272 40.2809 20.1842L36.7907 22.72C36.7556 22.7454 36.741 22.7906 36.7543 22.8318L38.0875 26.9348C38.1174 27.0269 38.012 27.1035 37.9336 27.0466L34.4434 24.5108C34.4083 24.4853 34.3609 24.4853 34.3258 24.5108L30.8356 27.0466C30.7572 27.1035 30.6518 27.0269 30.6817 26.9348L32.0149 22.8318C32.0283 22.7906 32.0136 22.7454 31.9785 22.72L28.4883 20.1842C28.4099 20.1272 28.4502 20.0033 28.5471 20.0033H32.8612C32.9046 20.0033 32.943 19.9754 32.9564 19.9342L34.2895 15.8312Z" stroke="#E5E4E2" stroke-width="1.5"/>
</g>
<g filter="url(#filter3_d_819_5547)">
<path d="M51.3461 12.9038C50.9319 12.9038 50.5961 13.2396 50.5961 13.6538C50.5961 14.068 50.9319 14.4038 51.3461 14.4038V12.9038ZM48.6714 28.5627C48.2812 28.7017 48.0776 29.1307 48.2165 29.5209C48.3555 29.9111 48.7845 30.1147 49.1747 29.9757L48.6714 28.5627ZM59.9464 14.6595L59.1967 14.6389L59.9464 14.6595ZM51.3461 14.4038H58.9581V12.9038H51.3461V14.4038ZM59.1967 14.6389C59.0953 18.3293 58.4696 21.0518 56.9246 23.2122C55.3793 25.3731 52.837 27.0789 48.6714 28.5627L49.1747 29.9757C53.482 28.4415 56.3482 26.5969 58.1448 24.0847C59.9417 21.5719 60.5912 18.4985 60.6961 14.6801L59.1967 14.6389ZM58.9581 14.4038C59.0993 14.4038 59.2 14.5175 59.1967 14.6389L60.6961 14.6801C60.7232 13.6947 59.9241 12.9038 58.9581 12.9038V14.4038Z"  fill="currentColor"/>
</g>
<g filter="url(#filter4_d_819_5547)">
<path d="M17.6923 12.6346C18.1065 12.6346 18.4423 12.9704 18.4423 13.3846C18.4423 13.7989 18.1065 14.1346 17.6923 14.1346V12.6346ZM20.367 28.2935C20.7572 28.4325 20.9609 28.8615 20.8219 29.2517C20.6829 29.6419 20.2539 29.8455 19.8637 29.7065L20.367 28.2935ZM9.09205 14.3904L9.84177 14.3698L9.09205 14.3904ZM17.6923 14.1346H10.0804V12.6346H17.6923V14.1346ZM9.84177 14.3698C9.94313 18.0602 10.5689 20.7826 12.1138 22.943C13.6591 25.1039 16.2015 26.8098 20.367 28.2935L19.8637 29.7065C15.5564 28.1723 12.6903 26.3278 10.8937 23.8155C9.09674 21.3028 8.44721 18.2294 8.34233 14.4109L9.84177 14.3698ZM10.0804 14.1346C9.93911 14.1346 9.83843 14.2483 9.84177 14.3698L8.34233 14.4109C8.31527 13.4256 9.11436 12.6346 10.0804 12.6346V14.1346Z"  fill="currentColor"/>
</g>
<defs>
<filter id="filter0_d_819_5547" x="11.4424" y="0.326904" width="46.1206" height="58.1538" filterUnits="userSpaceOnUse" color-interpolation-filters="sRGB">
<feFlood flood-opacity="0" result="BackgroundImageFix"/>
<feColorMatrix in="SourceAlpha" type="matrix" values="0 0 0 0 0 0 0 0 0 0 0 0 0 0 0 0 0 0 127 0" result="hardAlpha"/>
<feOffset/>
<feGaussianBlur stdDeviation="4"/>
<feColorMatrix type="matrix" values="0 0 0 0 0.752941 0 0 0 0 0.752941 0 0 0 0 0.752941 0 0 0 0.5 0"/>
<feBlend mode="normal" in2="BackgroundImageFix" result="effect1_dropShadow_819_5547"/>
<feBlend mode="normal" in="SourceGraphic" in2="effect1_dropShadow_819_5547" result="shape"/>
</filter>
<filter id="filter1_d_819_5547" x="4.84616" y="44.1538" width="59.0769" height="20.8462" filterUnits="userSpaceOnUse" color-interpolation-filters="sRGB">
<feFlood flood-opacity="0" result="BackgroundImageFix"/>
<feColorMatrix in="SourceAlpha" type="matrix" values="0 0 0 0 0 0 0 0 0 0 0 0 0 0 0 0 0 0 127 0" result="hardAlpha"/>
<feOffset/>
<feGaussianBlur stdDeviation="4"/>
<feColorMatrix type="matrix" values="0 0 0 0 0.752941 0 0 0 0 0.752941 0 0 0 0 0.752941 0 0 0 0.5 0"/>
<feBlend mode="normal" in2="BackgroundImageFix" result="effect1_dropShadow_819_5547"/>
<feBlend mode="normal" in="SourceGraphic" in2="effect1_dropShadow_819_5547" result="shape"/>
</filter>
<filter id="filter2_d_819_5547" x="19.6955" y="7.01208" width="29.3783" height="28.8075" filterUnits="userSpaceOnUse" color-interpolation-filters="sRGB">
<feFlood flood-opacity="0" result="BackgroundImageFix"/>
<feColorMatrix in="SourceAlpha" type="matrix" values="0 0 0 0 0 0 0 0 0 0 0 0 0 0 0 0 0 0 127 0" result="hardAlpha"/>
<feOffset/>
<feGaussianBlur stdDeviation="4"/>
<feColorMatrix type="matrix" values="0 0 0 0 0.752941 0 0 0 0 0.752941 0 0 0 0 0.752941 0 0 0 0.5 0"/>
<feBlend mode="normal" in2="BackgroundImageFix" result="effect1_dropShadow_819_5547"/>
<feBlend mode="normal" in="SourceGraphic" in2="effect1_dropShadow_819_5547" result="shape"/>
</filter>
<filter id="filter3_d_819_5547" x="40.1729" y="4.90381" width="28.5239" height="33.1156" filterUnits="userSpaceOnUse" color-interpolation-filters="sRGB">
<feFlood flood-opacity="0" result="BackgroundImageFix"/>
<feColorMatrix in="SourceAlpha" type="matrix" values="0 0 0 0 0 0 0 0 0 0 0 0 0 0 0 0 0 0 127 0" result="hardAlpha"/>
<feOffset/>
<feGaussianBlur stdDeviation="4"/>
<feColorMatrix type="matrix" values="0 0 0 0 0.752941 0 0 0 0 0.752941 0 0 0 0 0.752941 0 0 0 0.5 0"/>
<feBlend mode="normal" in2="BackgroundImageFix" result="effect1_dropShadow_819_5547"/>
<feBlend mode="normal" in="SourceGraphic" in2="effect1_dropShadow_819_5547" result="shape"/>
</filter>
<filter id="filter4_d_819_5547" x="0.341675" y="4.63464" width="28.5239" height="33.1156" filterUnits="userSpaceOnUse" color-interpolation-filters="sRGB">
<feFlood flood-opacity="0" result="BackgroundImageFix"/>
<feColorMatrix in="SourceAlpha" type="matrix" values="0 0 0 0 0 0 0 0 0 0 0 0 0 0 0 0 0 0 127 0" result="hardAlpha"/>
<feOffset/>
<feGaussianBlur stdDeviation="4"/>
<feColorMatrix type="matrix" values="0 0 0 0 0.752941 0 0 0 0 0.752941 0 0 0 0 0.752941 0 0 0 0.5 0"/>
<feBlend mode="normal" in2="BackgroundImageFix" result="effect1_dropShadow_819_5547"/>
<feBlend mode="normal" in="SourceGraphic" in2="effect1_dropShadow_819_5547" result="shape"/>
</filter>
</defs>
</svg>
