<svg width="16" height="16" viewBox="0 0 16 16" fill="none" xmlns="http://www.w3.org/2000/svg">
<path d="M14.1381 2.98564C14.7155 3.56304 14.725 4.49625 14.1594 5.08524L8.74248 10.7263C8.46719 11.013 8.08938 11.1787 7.69201 11.1871L5.41668 11.2348L5.46474 8.94424C5.47289 8.5559 5.63135 8.18587 5.90679 7.91201L11.4438 2.40661C12.0301 1.82369 12.9775 1.82505 13.5621 2.40965L14.1381 2.98564Z" fill="currentColor"/>
<path opacity="0.3" d="M8.59992 1.33398C8.96811 1.33398 9.26659 1.63246 9.26659 2.00065C9.26659 2.36884 8.96811 2.66732 8.59992 2.66732H3.99992C3.26354 2.66732 2.66659 3.26427 2.66659 4.00065V12.0007C2.66659 12.737 3.26354 13.334 3.99992 13.334H11.9999C12.7363 13.334 13.3333 12.737 13.3333 12.0007V8.66732C13.3333 8.29913 13.6317 8.00065 13.9999 8.00065C14.3681 8.00065 14.6666 8.29913 14.6666 8.66732V12.0007C14.6666 13.4734 13.4727 14.6673 11.9999 14.6673H3.99992C2.52716 14.6673 1.33325 13.4734 1.33325 12.0007V4.00065C1.33325 2.52789 2.52716 1.33398 3.99992 1.33398H8.59992Z" fill="currentColor"/>
</svg>
